<svg xmlns="http://www.w3.org/2000/svg" version="1.1" xmlns:xlink="http://www.w3.org/1999/xlink" xmlns:svgjs="http://svgjs.dev/svgjs" width="1000" height="623" viewBox="0 0 1000 623"><g transform="matrix(1,0,0,1,-0.6060606060606233,0.2522267206477409)"><svg viewBox="0 0 396 247" data-background-color="#ffffff" preserveAspectRatio="xMidYMid meet" height="623" width="1000" xmlns="http://www.w3.org/2000/svg" xmlns:xlink="http://www.w3.org/1999/xlink"><g id="tight-bounds" transform="matrix(1,0,0,1,0.2400000000000091,-0.09999999999999432)"><svg viewBox="0 0 395.52 247.2" height="247.2" width="395.52"><g><svg></svg></g><g><svg viewBox="0 0 395.52 247.2" height="247.2" width="395.52"><g><path xmlns="http://www.w3.org/2000/svg" d="M55.039 247.2l32.665-56.578v10.846h1.322l-22.403 38.804h262.274l-22.403-38.804 1.322 0 0-10.846 32.665 56.578zM197.76 0l26.403 45.732-7.583 0-18.82-32.596-18.82 32.596-7.583 0z" fill="#ff0000" fill-rule="nonzero" stroke="none" stroke-width="1" stroke-linecap="butt" stroke-linejoin="miter" stroke-miterlimit="10" stroke-dasharray="" stroke-dashoffset="0" font-family="none" font-weight="none" font-size="none" text-anchor="none" style="mix-blend-mode: normal" data-fill-palette-color="tertiary"></path></g><g transform="matrix(1,0,0,1,109.95249999999999,67.97999999999999)"><svg viewBox="0 0 175.615 111.24" height="111.24" width="175.615"><g><svg viewBox="0 0 175.615 111.24" height="111.24" width="175.615"><g><svg viewBox="0 0 175.615 111.24" height="111.24" width="175.615"><g><svg viewBox="0 0 175.615 111.24" height="111.24" width="175.615"><g><svg viewBox="0 0 175.615 111.24" height="111.24" width="175.615"><g><svg viewBox="0 0 175.615 111.24" height="111.24" width="175.615"><g transform="matrix(1,0,0,1,0,0)"><svg width="175.615" viewBox="1.149999976158142 -40.43000030517578 66.5999984741211 42.189998626708984" height="111.24" data-palette-color="#ff0000"><g class="undefined-text-0" data-fill-palette-color="primary" id="text-0"><path d="M4.15-8.79L4.15-8.79 1.15-8.79 1.15-10.55 4.15-10.55Q5.44-10.55 6.32-11.52 7.2-12.5 7.2-14.11L7.2-14.11 7.2-40.43 8.96-40.43 8.96-14.11Q8.96-11.79 7.57-10.29 6.18-8.79 4.15-8.79ZM4.15-5.27L4.15-5.27 1.15-5.27 1.15-7.03 4.15-7.03Q6.88-7.03 8.8-9.11 10.72-11.18 10.72-14.11L10.72-14.11 10.72-40.43 12.48-40.43 12.48-14.11Q12.48-10.45 10.05-7.86 7.62-5.27 4.15-5.27ZM4.15-1.76L4.15-1.76 1.15-1.76 1.15-3.52 4.15-3.52Q8.35-3.52 11.29-6.62 14.23-9.72 14.23-14.11L14.23-14.11 14.23-40.43 15.99-40.43 15.99-14.11Q15.99-10.77 14.42-7.92 12.84-5.08 10.11-3.42 7.37-1.76 4.15-1.76ZM4.15 1.76L4.15 1.76 1.15 1.76 1.15 0 4.15 0Q6.93 0 9.45-1.12 11.96-2.25 13.78-4.14 15.6-6.03 16.67-8.64 17.75-11.25 17.75-14.11L17.75-14.11 17.75-40.43 19.51-40.43 19.51-14.11Q19.51-10.89 18.3-7.96 17.09-5.03 15.03-2.89 12.96-0.76 10.12 0.5 7.28 1.76 4.15 1.76ZM48.87-11.87L41.45-11.87 42.16-13.62 48.17-13.62 48.87-11.87ZM50.29-8.35L40.09-8.35 40.77-10.11 49.53-10.11 50.29-8.35ZM51.66-4.83L38.72-4.83 39.4-6.59 50.93-6.59 51.66-4.83ZM39.48-38.06L24.44 0 22.53 0 38.52-40.43 40.43-40.43 56.39 0 54.51 0 39.48-38.06ZM26.32 0L39.69-33.89 40.7-31.64 28.2 0 26.32 0ZM30.1 0L41.65-29.25 42.58-26.83 32 0 30.1 0ZM33.88 0L43.5-24.41 44.43-21.95 35.76 0 33.88 0ZM51.76-40.43L67.75 0 65.84 0 49.88-40.43 51.76-40.43ZM46.09-40.43L47.97-40.43 63.96 0 62.08 0 46.09-40.43ZM42.31-40.43L44.19-40.43 60.18 0 58.27 0 42.31-40.43Z" fill="#ff0000" data-fill-palette-color="primary"></path></g></svg></g></svg></g></svg></g></svg></g><g></g></svg></g></svg></g></svg></g></svg></g><defs></defs></svg><rect width="395.52" height="247.2" fill="none" stroke="none" visibility="hidden"></rect></g></svg></g></svg>