<svg width="478" height="426" viewBox="0 0 478 426" fill="none" xmlns="http://www.w3.org/2000/svg">
<path fill-rule="evenodd" clip-rule="evenodd" d="M236.811 8.99068L231.24 18.521C229.671 21.2048 225.774 21.1516 224.28 18.426C223.604 17.1937 223.624 15.6971 224.333 14.4838L229.904 4.95342C233.765 -1.65115 243.31 -1.65114 247.171 4.95343L296.398 89.166C297.956 91.8326 296.033 95.1846 292.944 95.1846C291.523 95.1846 290.208 94.4303 289.491 93.2032L240.264 8.99069C239.492 7.66976 237.583 7.66978 236.811 8.99068ZM209.171 56.2743C207.602 58.9581 203.706 58.9049 202.211 56.1793C201.535 54.947 201.555 53.4504 202.265 52.2371L214.33 31.5964C215.899 28.9126 219.796 28.9658 221.291 31.6915C221.966 32.9237 221.946 34.4203 221.237 35.6337L209.171 56.2743ZM192.261 69.3497C193.83 66.6659 197.727 66.7191 199.222 69.4448C199.898 70.677 199.877 72.1736 199.168 73.3869L187.584 93.2032C186.867 94.4303 185.552 95.1846 184.131 95.1846C181.042 95.1846 179.119 91.8326 180.678 89.166L192.261 69.3497ZM436.799 345.203C435.24 342.537 437.163 339.185 440.252 339.185C441.673 339.185 442.988 339.939 443.705 341.166L475.693 395.888C479.59 402.555 474.782 410.935 467.06 410.935H228.163C224.025 410.935 220.315 413.483 218.83 417.344L216.581 423.189C215.93 424.882 214.303 426 212.488 426V426C209.409 426 207.289 422.912 208.394 420.039L210.276 415.148C211.251 412.613 213.687 410.94 216.403 410.94H218.165C219.82 410.94 221.304 409.921 221.898 408.376V408.376C222.906 405.756 220.972 402.94 218.165 402.94H217.603C215.789 402.94 214.162 404.057 213.51 405.751L213.053 406.937C212.127 409.346 209.813 410.935 207.233 410.935H206.674C203.764 410.935 201.154 412.722 200.101 415.434L197.099 423.169C196.436 424.876 194.794 426 192.963 426V426C189.843 426 187.698 422.864 188.829 419.956L190.681 415.192C191.678 412.629 194.147 410.94 196.898 410.94H198.726C200.376 410.94 201.857 409.926 202.455 408.387V408.387C203.472 405.766 201.538 402.94 198.726 402.94H198.096C196.269 402.94 194.629 404.062 193.966 405.765L193.51 406.937C192.573 409.347 190.253 410.935 187.667 410.935H187.453C184.738 410.935 182.302 412.601 181.318 415.132L178.179 423.207C177.524 424.891 175.903 426 174.096 426V426C171.016 426 168.897 422.904 170.014 420.032L171.916 415.141C172.901 412.608 175.34 410.94 178.058 410.94H179.83C181.48 410.94 182.96 409.927 183.558 408.389V408.389C184.578 405.767 182.643 402.94 179.83 402.94H179.276C177.469 402.94 175.849 404.049 175.194 405.732L174.725 406.937C173.788 409.347 171.468 410.935 168.882 410.935H168.764C166.108 410.935 163.723 412.566 162.761 415.042L159.6 423.172C158.937 424.877 157.295 426 155.465 426V426C152.345 426 150.2 422.863 151.332 419.955L153.303 414.891C154.231 412.509 156.525 410.94 159.082 410.94H160.585C162.231 410.94 163.71 409.931 164.31 408.397V408.397C165.336 405.774 163.401 402.94 160.585 402.94H159.955C158.132 402.94 156.495 404.057 155.831 405.754L155.367 406.937C154.423 409.348 152.099 410.935 149.509 410.935H55.4042C54.0833 410.935 52.8476 410.282 52.1021 409.192C50.2871 406.537 52.1882 402.935 55.4042 402.935H151.12C155.243 402.935 158.943 400.404 160.439 396.562L267.158 122.448C268.202 119.766 270.785 118 273.663 118V118C276.528 118 279.103 119.751 280.155 122.416L355.885 314.171C357.018 317.04 354.903 320.148 351.819 320.148V320.148C350.025 320.148 348.413 319.052 347.753 317.383L283.026 153.568C279.684 145.11 267.701 145.143 264.405 153.619L169.738 397.096C168.646 399.906 170.718 402.935 173.732 402.935V402.935C175.499 402.935 177.085 401.85 177.726 400.203L270.953 160.477C272.359 156.86 277.433 156.737 279.013 160.282V160.282C279.487 161.346 279.516 162.556 279.094 163.643L188.378 396.974C187.263 399.842 189.378 402.935 192.456 402.935V402.935C194.26 402.935 195.879 401.827 196.533 400.145L280.432 184.407C281.874 180.699 287.125 180.71 288.551 184.425V184.425C288.939 185.434 288.937 186.551 288.545 187.559L207.419 396.579C206.232 399.638 208.489 402.935 211.77 402.935V402.935C213.701 402.935 215.432 401.745 216.126 399.943L289.66 208.818C291.105 205.061 296.427 205.081 297.844 208.848V208.848C298.222 209.852 298.218 210.96 297.833 211.962L229.6 389.344C227.081 395.894 231.915 402.935 238.933 402.935H467.06C468.604 402.935 469.566 401.258 468.787 399.925L436.799 345.203ZM18.7017 382.111C19.482 380.776 19.4231 379.111 18.5505 377.835C16.8935 375.411 13.2768 375.539 11.7952 378.074L1.38189 395.888C-2.51505 402.554 2.29314 410.935 10.0151 410.935H33.5996C36.8156 410.935 38.7167 407.332 36.9016 404.677C36.1562 403.587 34.9205 402.935 33.5996 402.935H10.0151C8.47069 402.935 7.50907 401.258 8.28845 399.925L18.7017 382.111ZM21.9966 365.157C23.6537 367.581 27.2703 367.453 28.752 364.918L40.2765 345.203C41.8352 342.537 39.912 339.185 36.8232 339.185C35.4018 339.185 34.0872 339.939 33.3699 341.166L21.8454 360.881C21.0651 362.216 21.124 363.881 21.9966 365.157ZM21 272.499C21 274.942 22.9933 276.916 25.4367 276.893L97.0147 276.203C103.769 276.203 109.466 273.721 114.105 268.757C118.743 263.711 121.063 257.323 121.063 249.592V68.8945C121.063 66.4675 119.095 64.5 116.668 64.5V64.5C114.241 64.5 112.273 66.4675 112.273 68.8945V249.592C112.273 254.963 110.809 259.276 107.879 262.531C104.949 265.786 101.328 267.414 97.0147 267.414L25.352 268.105C22.9417 268.128 21 270.088 21 272.499V272.499ZM97.0147 293.781H25.3945C22.9675 293.781 21 291.814 21 289.387V289.387C21 286.96 22.9675 284.992 25.3945 284.992H97.0147C106.129 284.992 113.86 281.534 120.208 274.616C126.637 267.699 129.852 259.357 129.852 249.592V68.8945C129.852 66.4675 131.819 64.5 134.246 64.5V64.5C136.673 64.5 138.641 66.4675 138.641 68.8945V249.592C138.641 261.799 134.572 272.215 126.434 280.842C118.377 289.468 108.571 293.781 97.0147 293.781ZM21 307.425C21 309.863 22.9847 311.835 25.4227 311.819L97.0147 311.359C107.757 311.359 117.685 308.592 126.8 303.059C135.914 297.525 143.076 290.038 148.284 280.598C153.574 271.076 156.219 260.741 156.219 249.592V68.8945C156.219 66.4675 154.251 64.5 151.824 64.5V64.5C149.397 64.5 147.43 66.4675 147.43 68.8945V249.592C147.43 264.24 142.506 276.732 132.659 287.067C122.894 297.403 111.012 302.57 97.0147 302.57L25.3662 303.031C22.9503 303.046 21 305.009 21 307.425V307.425ZM97.0147 328.938H25.3945C22.9675 328.938 21 326.97 21 324.543V324.543C21 322.116 22.9675 320.148 25.3945 320.148H97.0147C106.292 320.148 115.122 318.277 123.504 314.533C131.886 310.79 139.088 305.785 145.11 299.519C151.214 293.171 156.056 285.643 159.637 276.936C163.217 268.228 165.008 259.113 165.008 249.592V68.8945C165.008 66.4675 166.975 64.5 169.402 64.5V64.5C171.829 64.5 173.797 66.4675 173.797 68.8945V249.592C173.797 260.334 171.762 270.588 167.693 280.354C163.706 290.119 158.253 298.583 151.336 305.744C144.5 312.824 136.321 318.439 126.8 322.59C117.36 326.822 107.431 328.938 97.0147 328.938ZM290.046 252.033C288.253 252.033 286.639 253.123 285.969 254.786V254.786C284.806 257.674 286.932 260.822 290.046 260.822H314.14C317.253 260.822 319.379 257.674 318.216 254.786V254.786C317.546 253.123 315.933 252.033 314.14 252.033H290.046ZM283.126 278.4C280.035 278.4 277.91 275.294 279.031 272.413V272.413C279.687 270.724 281.314 269.611 283.126 269.611H321.051C322.806 269.611 324.393 270.656 325.087 272.268V272.268C326.336 275.169 324.209 278.4 321.051 278.4H283.126ZM276.29 287.189C274.478 287.189 272.851 288.302 272.195 289.991V289.991C271.074 292.872 273.199 295.979 276.29 295.979H327.972C331.108 295.979 333.234 292.788 332.028 289.894V289.894C331.346 288.256 329.746 287.189 327.972 287.189H276.29ZM412.613 314.094C413.762 316.999 411.621 320.148 408.497 320.148V320.148C406.68 320.148 405.048 319.038 404.38 317.348L328.013 123.978C326.88 121.109 328.995 118 332.079 118V118C333.873 118 335.485 119.096 336.145 120.764L412.613 314.094ZM389.659 320.148C392.743 320.148 394.857 317.039 393.723 314.171L317.224 120.763C316.564 119.095 314.953 118 313.16 118V118C310.075 118 307.961 121.109 309.096 123.978L385.595 317.386C386.254 319.053 387.865 320.148 389.659 320.148V320.148ZM294.238 118C296.032 118 297.643 119.096 298.303 120.764L374.771 314.094C375.92 316.999 373.78 320.148 370.655 320.148V320.148C368.838 320.148 367.206 319.038 366.539 317.348L290.171 123.978C289.038 121.109 291.153 118 294.238 118V118Z" fill="url(#paint0_linear_18_147)"/>
<defs>
<linearGradient id="paint0_linear_18_147" x1="238.538" y1="0" x2="238.538" y2="410.935" gradientUnits="userSpaceOnUse">
<stop stop-color="#C575FB"/>
<stop offset="1" stop-color="#61D0FF"/>
</linearGradient>
</defs>
</svg>
