<svg width="128" height="128" viewBox="0 0 128 128" fill="none" xmlns="http://www.w3.org/2000/svg">
<ellipse cx="76.7001" cy="113.285" rx="45.7515" ry="8.71457" fill="#61D0FF"/>
<rect x="30.9486" y="18.4156" width="91.503" height="94.2758" rx="5" fill="url(#paint0_linear_18_152)"/>
<path d="M120.788 21.8116C120.788 21.8127 120.788 21.8185 120.784 21.8322C120.78 21.8468 120.771 21.8757 120.747 21.9199C120.698 22.012 120.594 22.1586 120.389 22.3501C119.966 22.7437 119.249 23.2021 118.173 23.6868C116.031 24.6512 112.828 25.5607 108.74 26.3394C100.591 27.8916 89.2624 28.8625 76.7001 28.8625C64.1378 28.8625 52.8091 27.8916 44.6602 26.3394C40.572 25.5607 37.3687 24.6512 35.2271 23.6868C34.151 23.2021 33.4344 22.7437 33.0117 22.3501C32.8058 22.1586 32.702 22.012 32.6529 21.9199C32.6293 21.8757 32.6197 21.8468 32.6159 21.8322C32.6123 21.8187 32.6123 21.8129 32.6123 21.8117V21.8116V21.8115C32.6123 21.8103 32.6123 21.8045 32.6159 21.791C32.6197 21.7765 32.6293 21.7475 32.6529 21.7033C32.702 21.6112 32.8058 21.4647 33.0117 21.2731C33.4344 20.8796 34.151 20.4211 35.2271 19.9365C37.3687 18.972 40.572 18.0625 44.6602 17.2838C52.8091 15.7316 64.1378 14.7607 76.7001 14.7607C89.2624 14.7607 100.591 15.7316 108.74 17.2838C112.828 18.0625 116.031 18.972 118.173 19.9365C119.249 20.4211 119.966 20.8796 120.389 21.2731C120.594 21.4647 120.698 21.6112 120.747 21.7033C120.771 21.7475 120.78 21.7765 120.784 21.791C120.786 21.7978 120.787 21.8027 120.787 21.806C120.788 21.8093 120.788 21.8111 120.788 21.8116Z" fill="#C575FB" stroke="#151030" stroke-width="3.32738"/>
<path fill-rule="evenodd" clip-rule="evenodd" d="M76.7001 62.741C89.4773 62.741 101.134 61.7565 109.674 60.1298C113.917 59.3216 117.56 58.324 120.222 57.1251C121.664 56.4759 122.452 54.9733 122.452 53.3924L122.452 50.699L122.452 50.3235C122.452 50.3122 122.442 50.303 122.431 50.303C122.418 50.303 122.408 50.3153 122.411 50.3282C122.438 50.4512 122.452 50.5748 122.452 50.699C122.452 55.512 101.968 59.4136 76.7001 59.4136C51.4425 59.4136 30.9652 55.5151 30.9486 50.7049V53.3925C30.9486 54.9733 31.7362 56.4759 33.1777 57.1251C35.84 58.324 39.4835 59.3216 43.7263 60.1298C52.2666 61.7565 63.9228 62.741 76.7001 62.741ZM30.9486 50.6932C30.949 50.5709 30.9627 50.4493 30.9893 50.3282C30.9921 50.3153 30.9823 50.303 30.9691 50.303C30.9578 50.303 30.9486 50.3122 30.9486 50.3235V50.6932Z" fill="#151030"/>
<path fill-rule="evenodd" clip-rule="evenodd" d="M76.7001 97.4013C89.4773 97.4013 101.134 96.4168 109.674 94.7901C113.917 93.9819 117.56 92.9843 120.222 91.7854C121.664 91.1362 122.452 89.6336 122.452 88.0527L122.452 85.3593L122.452 84.9837C122.452 84.9723 122.442 84.9631 122.431 84.9631C122.418 84.9631 122.408 84.9755 122.411 84.9884C122.438 85.1114 122.452 85.2351 122.452 85.3593C122.452 90.1723 101.968 94.0739 76.7001 94.0739C51.4425 94.0739 30.9652 90.1754 30.9486 85.3652V88.0528C30.9486 89.6336 31.7362 91.1362 33.1777 91.7854C35.84 92.9843 39.4835 93.9819 43.7263 94.7901C52.2666 96.4168 63.9228 97.4013 76.7001 97.4013ZM30.9486 85.3535C30.949 85.2312 30.9627 85.1095 30.9893 84.9884C30.9921 84.9755 30.9824 84.9631 30.9691 84.9631C30.9578 84.9631 30.9486 84.9723 30.9486 84.9837V85.3535Z" fill="#151030"/>
<path fill-rule="evenodd" clip-rule="evenodd" d="M16.0671 21.9938L26.0115 13.809C26.6379 13.2935 27.5958 13.3698 28.2507 13.9873L31.4424 16.9972C31.9115 17.4395 32.5543 17.6167 33.126 17.4612L37.8925 16.1649C38.5553 15.9847 38.9945 15.3936 38.9945 14.6818V10.7422C38.9945 9.79907 39.7548 9.11443 40.6928 9.21302L53.4302 10.5518C54.3682 10.6504 55.1285 11.4948 55.1285 12.438V15.6517C55.1285 16.2986 55.492 16.9281 56.0673 17.2778L60.9284 20.2326C61.5319 20.5995 62.2568 20.5911 62.7751 20.2112L65.8253 17.9759C66.5001 17.4814 67.4924 17.631 68.1135 18.3208L76.9862 28.175C77.5959 28.8521 77.652 29.8332 77.1166 30.4566L74.5969 33.39C74.2374 33.8086 74.1338 34.4068 74.3222 34.9772L75.9633 39.9448C76.1992 40.6588 76.8442 41.1894 77.5692 41.2656L82.3017 41.763C83.2396 41.8615 84 42.706 84 43.6491V58.1644C84 58.636 83.6198 58.9783 83.1508 58.929L77.5345 58.3387C76.8266 58.2643 76.1929 58.6392 75.9443 59.2796L74.1941 63.7887C73.9602 64.3911 74.1124 65.1137 74.5833 65.6367L78.0559 69.4934C78.5197 70.0085 78.5057 70.7674 78.025 71.1656L68.2161 79.2932C67.5467 79.8478 66.5055 79.719 65.8595 79.0016L62.7349 75.5313C62.2438 74.9859 61.5033 74.7647 60.865 74.9727L57.007 76.2297C56.3826 76.4332 55.9777 77.008 55.9777 77.6911V82.542C55.9777 83.4851 55.2173 84.1697 54.2794 84.0711L39.8436 82.5539C38.9057 82.4553 38.1453 81.6108 38.1453 80.6677V76.1179C38.1453 75.4657 37.7758 74.8315 37.1931 74.4838L33.2906 72.1548C32.6389 71.7658 31.8567 71.8148 31.3437 72.2767L27.9554 75.3275C27.4864 75.7498 26.726 75.6699 26.257 75.149L16.4188 64.2226C15.7556 63.486 15.7556 62.4047 16.4188 61.8076L19.4999 59.0334C19.9909 58.5912 20.1335 57.8616 19.86 57.191L18.2066 53.1381C17.939 52.482 17.3249 52.0104 16.6456 51.939L11.8213 51.4319C10.8833 51.3334 10.123 50.4889 10.123 49.5458V35.8844C10.123 34.9412 10.8834 34.2566 11.8213 34.3552L16.6456 34.8622C17.3249 34.9336 17.939 34.5911 18.2066 33.9913L19.8965 30.204C20.1514 29.6327 20.0461 28.9298 19.625 28.3915L15.9995 23.7574C15.5585 23.1937 15.588 22.4253 16.0671 21.9938ZM47.4861 68.8418C59.2106 70.0741 68.7151 61.5162 68.7151 49.7271C68.7151 37.9381 59.2106 27.3822 47.4861 26.1499C35.7616 24.9176 26.2571 33.4755 26.2571 45.2646C26.2571 57.0537 35.7616 67.6095 47.4861 68.8418Z" fill="#060917"/>
<path d="M26.0115 13.809L25.4355 13.1211L26.0115 13.809ZM16.0671 21.9938L15.4911 21.3059L15.4787 21.3162L15.4667 21.327L16.0671 21.9938ZM28.2507 13.9873L28.7943 13.3885L28.2507 13.9873ZM31.4424 16.9972L30.8988 17.596L31.4424 16.9972ZM33.126 17.4612L33.4241 18.292V18.292L33.126 17.4612ZM37.8925 16.1649L37.5943 15.3341L37.8925 16.1649ZM56.0673 17.2778L56.4471 16.554V16.554L56.0673 17.2778ZM60.9284 20.2326L60.5486 20.9564L60.9284 20.2326ZM62.7751 20.2112L63.3187 20.9243L63.3187 20.9243L62.7751 20.2112ZM65.8253 17.9759L65.2817 17.2629L65.8253 17.9759ZM68.1135 18.3208L67.513 18.8614V18.8614L68.1135 18.3208ZM76.9862 28.175L76.3858 28.7156V28.7156L76.9862 28.175ZM77.1166 30.4566L76.4509 29.8564V29.8564L77.1166 30.4566ZM74.5969 33.39L75.2625 33.9901V33.9901L74.5969 33.39ZM74.3222 34.9772L75.1252 34.7837V34.7837L74.3222 34.9772ZM75.9633 39.9448L75.1603 40.1382V40.1382L75.9633 39.9448ZM75.9443 59.2796L75.1492 58.8962L75.1492 58.8962L75.9443 59.2796ZM74.1941 63.7887L73.399 63.4053L74.1941 63.7887ZM74.5833 65.6367L75.1838 65.0961L74.5833 65.6367ZM78.025 71.1656L77.4472 70.4792V70.4792L78.025 71.1656ZM68.2161 79.2932L68.7939 79.9796L68.7939 79.9796L68.2161 79.2932ZM65.8595 79.0016L66.46 78.461L66.46 78.461L65.8595 79.0016ZM62.7349 75.5313L62.1344 76.072L62.7349 75.5313ZM60.865 74.9727L60.5305 74.1527L60.5305 74.1527L60.865 74.9727ZM57.007 76.2297L57.3415 77.0497L57.3415 77.0497L57.007 76.2297ZM37.1931 74.4838L36.82 75.2116L36.82 75.2116L37.1931 74.4838ZM33.2906 72.1548L33.6637 71.4269L33.6636 71.4269L33.2906 72.1548ZM31.3437 72.2767L30.7432 71.6098L30.7432 71.6098L31.3437 72.2767ZM27.9554 75.3275L28.5558 75.9944L28.5558 75.9944L27.9554 75.3275ZM26.257 75.149L25.6566 75.6897L25.6566 75.6897L26.257 75.149ZM16.4188 64.2226L17.0193 63.6819L17.0193 63.6819L16.4188 64.2226ZM16.4188 61.8076L17.0193 62.4744L16.4188 61.8076ZM19.4999 59.0334L20.1003 59.7003L20.1003 59.7003L19.4999 59.0334ZM19.86 57.191L20.6405 56.9367L20.6405 56.9367L19.86 57.191ZM18.2066 53.1381L18.9871 52.8837V52.8837L18.2066 53.1381ZM11.8213 34.3552V33.5013V34.3552ZM16.6456 34.8622V35.7161V34.8622ZM18.2066 33.9913L17.4261 33.5729L17.4261 33.5729L18.2066 33.9913ZM19.8965 30.204L19.116 29.7857L19.8965 30.204ZM19.625 28.3915L20.2697 27.9036V27.9036L19.625 28.3915ZM15.9995 23.7574L15.3548 24.2453L15.3548 24.2453L15.9995 23.7574ZM25.4355 13.1211L15.4911 21.3059L16.6431 22.6818L26.5875 14.497L25.4355 13.1211ZM28.7943 13.3885C27.812 12.4622 26.3751 12.3478 25.4355 13.1211L26.5875 14.497C26.9007 14.2392 27.3796 14.2773 27.7071 14.5861L28.7943 13.3885ZM31.986 16.3984L28.7943 13.3885L27.7071 14.5861L30.8988 17.596L31.986 16.3984ZM32.8278 16.6304C32.542 16.7082 32.2206 16.6196 31.986 16.3984L30.8988 17.596C31.6024 18.2595 32.5666 18.5253 33.4241 18.292L32.8278 16.6304ZM37.5943 15.3341L32.8278 16.6304L33.4241 18.292L38.1906 16.9957L37.5943 15.3341ZM38.1453 14.5926C38.1453 14.9485 37.9257 15.244 37.5943 15.3341L38.1906 16.9957C39.1849 16.7253 39.8436 15.8388 39.8436 14.7711L38.1453 14.5926ZM38.1453 10.6529V14.5926L39.8436 14.7711V10.8314L38.1453 10.6529ZM40.6928 8.35918C39.2859 8.2113 38.1453 9.23826 38.1453 10.6529L39.8436 10.8314C39.8436 10.3599 40.2238 10.0176 40.6928 10.0669V8.35918ZM53.4302 9.69793L40.6928 8.35918V10.0669L53.4302 11.4056V9.69793ZM55.9777 12.5272C55.9777 11.1125 54.8371 9.84581 53.4302 9.69793V11.4056C53.8992 11.4549 54.2794 11.8771 54.2794 12.3487L55.9777 12.5272ZM55.9777 15.741V12.5272L54.2794 12.3487V15.5625L55.9777 15.741ZM56.4471 16.554C56.1594 16.3792 55.9777 16.0644 55.9777 15.741L54.2794 15.5625C54.2794 16.5327 54.8245 17.477 55.6876 18.0016L56.4471 16.554ZM61.3081 19.5088L56.4471 16.554L55.6876 18.0016L60.5486 20.9564L61.3081 19.5088ZM62.2315 19.4981C61.9723 19.6881 61.6099 19.6923 61.3081 19.5088L60.5486 20.9564C61.4539 21.5067 62.5412 21.4941 63.3187 20.9243L62.2315 19.4981ZM65.2817 17.2629L62.2315 19.4981L63.3187 20.9243L66.3689 18.689L65.2817 17.2629ZM68.7139 17.7801C67.7822 16.7454 66.2939 16.5211 65.2817 17.2629L66.3689 18.689C66.7063 18.4418 67.2025 18.5165 67.513 18.8614L68.7139 17.7801ZM77.5866 27.6343L68.7139 17.7801L67.513 18.8614L76.3858 28.7156L77.5866 27.6343ZM77.7822 31.0567C78.5853 30.1217 78.5012 28.6501 77.5866 27.6343L76.3858 28.7156C76.6906 29.0542 76.7186 29.5447 76.4509 29.8564L77.7822 31.0567ZM75.2625 33.9901L77.7822 31.0567L76.4509 29.8564L73.9313 32.7898L75.2625 33.9901ZM75.1252 34.7837C75.031 34.4985 75.0827 34.1994 75.2625 33.9901L73.9313 32.7898C73.392 33.4177 73.2367 34.3151 73.5193 35.1706L75.1252 34.7837ZM76.7662 39.7513L75.1252 34.7837L73.5193 35.1706L75.1603 40.1382L76.7662 39.7513ZM77.5692 40.4117C77.2067 40.3736 76.8842 40.1084 76.7662 39.7513L75.1603 40.1382C75.5142 41.2093 76.4817 42.0051 77.5692 42.1194V40.4117ZM82.3017 40.9091L77.5692 40.4117V42.1194L82.3017 42.6168V40.9091ZM84.8492 43.7384C84.8492 42.3237 83.7086 41.057 82.3017 40.9091V42.6168C82.7707 42.6661 83.1508 43.0883 83.1508 43.5599L84.8492 43.7384ZM84.8492 58.2536V43.7384L83.1508 43.5599V58.0751L84.8492 58.2536ZM83.1508 59.7828C84.0888 59.8814 84.8492 59.1968 84.8492 58.2536L83.1508 58.0751V59.7828ZM77.5345 59.1925L83.1508 59.7828V58.0751L77.5345 57.4848V59.1925ZM76.7394 59.663C76.8637 59.3428 77.1805 59.1553 77.5345 59.1925V57.4848C76.4726 57.3732 75.5221 57.9357 75.1492 58.8962L76.7394 59.663ZM74.9891 64.1721L76.7394 59.663L75.1492 58.8962L73.399 63.4053L74.9891 64.1721ZM75.1838 65.0961C74.9483 64.8346 74.8722 64.4733 74.9891 64.1721L73.399 63.4053C73.0482 64.309 73.2765 65.3929 73.9829 66.1774L75.1838 65.0961ZM78.6563 68.9527L75.1838 65.0961L73.9829 66.1774L77.4554 70.034L78.6563 68.9527ZM78.6028 71.8521C79.4362 71.1616 79.4605 69.8458 78.6563 68.9527L77.4554 70.034C77.5789 70.1712 77.5752 70.3732 77.4472 70.4792L78.6028 71.8521ZM68.7939 79.9796L78.6028 71.852L77.4472 70.4792L67.6383 78.6068L68.7939 79.9796ZM65.2591 79.5423C66.228 80.6184 67.7898 80.8116 68.7939 79.9796L67.6383 78.6068C67.3035 78.8841 66.783 78.8197 66.46 78.461L65.2591 79.5423ZM62.1344 76.072L65.2591 79.5423L66.46 78.461L63.3353 74.9907L62.1344 76.072ZM61.1995 75.7926C61.5186 75.6887 61.8889 75.7993 62.1344 76.072L63.3353 74.9907C62.5987 74.1726 61.4879 73.8408 60.5305 74.1527L61.1995 75.7926ZM57.3415 77.0497L61.1995 75.7926L60.5305 74.1527L56.6725 75.4098L57.3415 77.0497ZM56.8269 77.7804C56.8269 77.4388 57.0293 77.1514 57.3415 77.0497L56.6725 75.4098C55.7358 75.7149 55.1285 76.5772 55.1285 77.6019L56.8269 77.7804ZM56.8269 82.6312V77.7804L55.1285 77.6019V82.4527L56.8269 82.6312ZM54.2794 84.925C55.6863 85.0729 56.8269 84.0459 56.8269 82.6312L55.1285 82.4527C55.1285 82.9243 54.7483 83.2666 54.2794 83.2173V84.925ZM39.8436 83.4077L54.2794 84.925V83.2173L39.8436 81.7001V83.4077ZM37.2961 80.5785C37.2961 81.9931 38.4367 83.2598 39.8436 83.4077V81.7001C39.3747 81.6508 38.9945 81.2285 38.9945 80.757L37.2961 80.5785ZM37.2961 76.0287V80.5785L38.9945 80.757V76.2072L37.2961 76.0287ZM36.82 75.2116C37.1114 75.3855 37.2961 75.7025 37.2961 76.0287L38.9945 76.2072C38.9945 75.2288 38.4402 74.2776 37.5661 73.7559L36.82 75.2116ZM32.9176 72.8826L36.82 75.2116L37.5661 73.7559L33.6637 71.4269L32.9176 72.8826ZM31.9441 72.9436C32.2006 72.7126 32.5917 72.6881 32.9176 72.8826L33.6636 71.4269C32.686 70.8435 31.5127 70.917 30.7432 71.6098L31.9441 72.9436ZM28.5558 75.9944L31.9441 72.9435L30.7432 71.6098L27.3549 74.6607L28.5558 75.9944ZM25.6566 75.6897C26.4572 76.5788 27.7552 76.7152 28.5558 75.9944L27.3549 74.6606C27.2176 74.7843 26.9949 74.7609 26.8575 74.6084L25.6566 75.6897ZM15.8184 64.7632L25.6566 75.6897L26.8575 74.6084L17.0193 63.6819L15.8184 64.7632ZM15.8184 61.1407C14.8235 62.0365 14.8235 63.6583 15.8184 64.7632L17.0193 63.6819C16.6877 63.3136 16.6877 62.773 17.0193 62.4744L15.8184 61.1407ZM18.8994 58.3665L15.8184 61.1407L17.0193 62.4744L20.1003 59.7003L18.8994 58.3665ZM19.0795 57.4454C19.2163 57.7806 19.145 58.1455 18.8994 58.3665L20.1003 59.7003C20.8369 59.037 21.0508 57.9426 20.6405 56.9367L19.0795 57.4454ZM17.4261 53.3924L19.0795 57.4454L20.6405 56.9367L18.9871 52.8837L17.4261 53.3924ZM16.6456 52.7928C16.9853 52.8285 17.2923 53.0644 17.4261 53.3924L18.9871 52.8837C18.5856 51.8997 17.6646 51.1923 16.6456 51.0852V52.7928ZM11.8213 52.2858L16.6456 52.7928V51.0852L11.8213 50.5781V52.2858ZM9.27382 49.4565C9.27382 50.8712 10.4144 52.1379 11.8213 52.2858V50.5781C11.3523 50.5288 10.9721 50.1066 10.9721 49.635L9.27382 49.4565ZM9.27382 35.7951V49.4565L10.9721 49.635V35.9736L9.27382 35.7951ZM11.8213 33.5013C10.4144 33.3535 9.27382 34.3804 9.27382 35.7951L10.9721 35.9736C10.9721 35.502 11.3523 35.1597 11.8213 35.209V33.5013ZM16.6456 34.0084L11.8213 33.5013V35.209L16.6456 35.7161V34.0084ZM17.4261 33.5729C17.2923 33.8728 16.9853 34.0441 16.6456 34.0084V35.7161C17.6646 35.8232 18.5856 35.3093 18.9871 34.4097L17.4261 33.5729ZM19.116 29.7857L17.4261 33.5729L18.9871 34.4097L20.677 30.6224L19.116 29.7857ZM18.9802 28.8794C19.1908 29.1485 19.2435 29.5 19.116 29.7857L20.677 30.6224C21.0594 29.7654 20.9015 28.7111 20.2697 27.9036L18.9802 28.8794ZM15.3548 24.2453L18.9802 28.8794L20.2697 27.9036L16.6442 23.2695L15.3548 24.2453ZM15.4667 21.327C14.6738 22.0409 14.625 23.3125 15.3548 24.2453L16.6442 23.2695C16.492 23.0749 16.5022 22.8096 16.6676 22.6607L15.4667 21.327ZM67.866 49.6379C67.866 60.9554 58.7416 69.171 47.4861 67.988V69.6957C59.6795 70.9772 69.5643 62.077 69.5643 49.8164L67.866 49.6379ZM47.4861 27.0037C58.7416 28.1867 67.866 38.3204 67.866 49.6379L69.5643 49.8164C69.5643 37.5558 59.6795 26.5776 47.4861 25.2961V27.0037ZM27.1062 45.3539C27.1062 34.0364 36.2306 25.8207 47.4861 27.0037V25.2961C35.2926 24.0145 25.4079 32.9147 25.4079 45.1753L27.1062 45.3539ZM47.4861 67.988C36.2306 66.805 27.1062 56.6713 27.1062 45.3539L25.4079 45.1753C25.4079 57.436 35.2926 68.4141 47.4861 69.6957V67.988Z" fill="#060917"/>
<path fill-rule="evenodd" clip-rule="evenodd" d="M10.9441 25.4093L20.8885 17.2244C21.5149 16.7089 22.4728 16.7852 23.1277 17.4027L26.3194 20.4126C26.7885 20.8549 27.4313 21.0321 28.003 20.8766L32.7695 19.5803C33.4323 19.4001 33.8715 18.809 33.8715 18.0972V14.1576C33.8715 13.2145 34.6318 12.5298 35.5698 12.6284L48.3072 13.9672C49.2452 14.0658 50.0055 14.9102 50.0055 15.8534V19.0671C50.0055 19.714 50.369 20.3435 50.9444 20.6932L55.8054 23.648C56.4089 24.0149 57.1338 24.0065 57.6521 23.6266L60.7023 21.3913C61.3771 20.8968 62.3694 21.0464 62.9905 21.7362L71.8632 31.5904C72.4729 32.2675 72.529 33.2486 71.9936 33.872L69.4739 36.8054C69.1144 37.224 69.0108 37.8222 69.1993 38.3926L70.8403 43.3602C71.0762 44.0742 71.7212 44.6048 72.4462 44.681L77.1787 45.1784C78.1167 45.277 78.877 46.1214 78.877 47.0645V61.5798C78.877 62.0514 78.4968 62.3937 78.0279 62.3444L72.4115 61.7541C71.7036 61.6797 71.0699 62.0546 70.8213 62.695L69.0711 67.2041C68.8372 67.8066 68.9894 68.5291 69.4604 69.0521L72.9329 72.9088C73.3967 73.4239 73.3827 74.1828 72.902 74.581L63.0931 82.7086C62.4237 83.2632 61.3825 83.1344 60.7366 82.417L57.6119 78.9467C57.1208 78.4014 56.3803 78.1801 55.742 78.3881L51.884 79.6451C51.2596 79.8486 50.8547 80.4234 50.8547 81.1065V85.9574C50.8547 86.9005 50.0943 87.5851 49.1564 87.4866L34.7206 85.9693C33.7827 85.8707 33.0223 85.0262 33.0223 84.0831V79.5333C33.0223 78.8811 32.6528 78.2469 32.0701 77.8992L28.1676 75.5702C27.5159 75.1812 26.7337 75.2302 26.2207 75.6921L22.8324 78.7429C22.3634 79.1652 21.603 79.0853 21.1341 78.5644L11.2959 67.638C10.6326 66.9014 10.6326 65.8201 11.2959 65.223L14.3769 62.4488C14.8679 62.0067 15.0106 61.277 14.737 60.6064L13.0836 56.5535C12.816 55.8974 12.202 55.4258 11.5226 55.3544L6.69832 54.8474C5.76036 54.7488 5 53.9043 5 52.9612V39.2998C5 38.3566 5.76036 37.672 6.69832 37.7706L11.5226 38.2776C12.202 38.349 12.816 38.0065 13.0836 37.4067L14.7735 33.6194C15.0285 33.0481 14.9232 32.3452 14.502 31.8069L10.8765 27.1728C10.4355 26.6091 10.465 25.8407 10.9441 25.4093ZM42.363 72.2572C54.0875 73.4895 63.5921 64.9316 63.5921 53.1425C63.5921 41.3535 54.0875 30.7976 42.363 29.5653C30.6386 28.333 21.134 36.891 21.134 48.68C21.134 60.4691 30.6386 71.0249 42.363 72.2572Z" fill="url(#paint1_linear_18_152)"/>
<path d="M20.8885 17.2244L20.3126 16.5365L20.8885 17.2244ZM10.9441 25.4093L10.3682 24.7213L10.3557 24.7316L10.3437 24.7424L10.9441 25.4093ZM23.1277 17.4027L23.6713 16.8039L23.1277 17.4027ZM26.3194 20.4126L25.7758 21.0114L26.3194 20.4126ZM28.003 20.8766L28.3012 21.7074V21.7074L28.003 20.8766ZM32.7695 19.5803L32.4713 18.7495L32.7695 19.5803ZM50.9444 20.6932L51.3241 19.9694V19.9694L50.9444 20.6932ZM55.8054 23.648L55.4256 24.3718L55.8054 23.648ZM57.6521 23.6266L58.1957 24.3397L58.1957 24.3397L57.6521 23.6266ZM60.7023 21.3913L60.1587 20.6783L60.7023 21.3913ZM62.9905 21.7362L62.39 22.2768V22.2768L62.9905 21.7362ZM71.8632 31.5904L71.2628 32.131V32.131L71.8632 31.5904ZM71.9936 33.872L71.3279 33.2718V33.2718L71.9936 33.872ZM69.4739 36.8054L70.1395 37.4055V37.4055L69.4739 36.8054ZM69.1993 38.3926L70.0022 38.1991V38.1991L69.1993 38.3926ZM70.8403 43.3602L70.0374 43.5536V43.5536L70.8403 43.3602ZM70.8213 62.695L70.0262 62.3116L70.0262 62.3117L70.8213 62.695ZM69.0711 67.2041L68.276 66.8207L69.0711 67.2041ZM69.4604 69.0521L70.0608 68.5115L69.4604 69.0521ZM72.902 74.581L72.3242 73.8946V73.8946L72.902 74.581ZM63.0931 82.7086L63.6709 83.395L63.6709 83.395L63.0931 82.7086ZM60.7366 82.417L61.337 81.8764L61.337 81.8764L60.7366 82.417ZM57.6119 78.9467L57.0114 79.4874L57.6119 78.9467ZM55.742 78.3881L55.4075 77.5681L55.4075 77.5681L55.742 78.3881ZM51.884 79.6451L52.2185 80.4651L52.2185 80.4651L51.884 79.6451ZM32.0701 77.8992L31.697 78.627L31.697 78.627L32.0701 77.8992ZM28.1676 75.5702L28.5407 74.8423L28.5407 74.8423L28.1676 75.5702ZM26.2207 75.6921L25.6202 75.0252L25.6202 75.0252L26.2207 75.6921ZM22.8324 78.7429L23.4328 79.4098L23.4328 79.4098L22.8324 78.7429ZM21.1341 78.5644L20.5336 79.1051L20.5336 79.1051L21.1341 78.5644ZM11.2959 67.638L11.8963 67.0973L11.8963 67.0973L11.2959 67.638ZM11.2959 65.223L11.8963 65.8898L11.2959 65.223ZM14.3769 62.4488L14.9773 63.1157L14.9773 63.1157L14.3769 62.4488ZM14.737 60.6064L15.5175 60.3521L15.5175 60.3521L14.737 60.6064ZM13.0836 56.5535L13.8641 56.2992V56.2991L13.0836 56.5535ZM13.0836 37.4067L12.3031 36.9883L12.3031 36.9883L13.0836 37.4067ZM14.7735 33.6194L13.993 33.2011L14.7735 33.6194ZM14.502 31.8069L15.1467 31.319V31.319L14.502 31.8069ZM10.8765 27.1728L10.2318 27.6607L10.2318 27.6607L10.8765 27.1728ZM20.3126 16.5365L10.3682 24.7213L11.5201 26.0972L21.4645 17.9124L20.3126 16.5365ZM23.6713 16.8039C22.689 15.8776 21.2521 15.7632 20.3126 16.5365L21.4645 17.9124C21.7777 17.6546 22.2567 17.6927 22.5841 18.0015L23.6713 16.8039ZM26.863 19.8138L23.6713 16.8039L22.5841 18.0015L25.7758 21.0114L26.863 19.8138ZM27.7048 20.0458C27.419 20.1236 27.0976 20.035 26.863 19.8138L25.7758 21.0114C26.4794 21.6749 27.4436 21.9407 28.3012 21.7074L27.7048 20.0458ZM32.4713 18.7495L27.7048 20.0458L28.3012 21.7074L33.0676 20.4111L32.4713 18.7495ZM33.0223 18.008C33.0223 18.3639 32.8027 18.6594 32.4713 18.7495L33.0676 20.4111C34.0619 20.1407 34.7206 19.2542 34.7206 18.1865L33.0223 18.008ZM33.0223 14.0683V18.008L34.7206 18.1865V14.2468L33.0223 14.0683ZM35.5698 11.7746C34.1629 11.6267 33.0223 12.6537 33.0223 14.0683L34.7206 14.2468C34.7206 13.7753 35.1008 13.433 35.5698 13.4823V11.7746ZM48.3072 13.1133L35.5698 11.7746V13.4823L48.3072 14.821V13.1133ZM50.8547 15.9426C50.8547 14.5279 49.7142 13.2612 48.3072 13.1133V14.821C48.7762 14.8703 49.1564 15.2925 49.1564 15.7641L50.8547 15.9426ZM50.8547 19.1564V15.9426L49.1564 15.7641V18.9779L50.8547 19.1564ZM51.3241 19.9694C51.0364 19.7946 50.8547 19.4798 50.8547 19.1564L49.1564 18.9779C49.1564 19.9481 49.7015 20.8924 50.5646 21.417L51.3241 19.9694ZM56.1851 22.9242L51.3241 19.9694L50.5646 21.417L55.4256 24.3718L56.1851 22.9242ZM57.1085 22.9135C56.8493 23.1035 56.4869 23.1077 56.1851 22.9242L55.4256 24.3718C56.3309 24.9221 57.4182 24.9095 58.1957 24.3397L57.1085 22.9135ZM60.1587 20.6783L57.1085 22.9135L58.1957 24.3397L61.246 22.1044L60.1587 20.6783ZM63.5909 21.1956C62.6593 20.1608 61.1709 19.9365 60.1587 20.6783L61.246 22.1044C61.5834 21.8572 62.0795 21.9319 62.39 22.2768L63.5909 21.1956ZM72.4637 31.0497L63.5909 21.1956L62.39 22.2768L71.2628 32.131L72.4637 31.0497ZM72.6592 34.4721C73.4623 33.5371 73.3782 32.0655 72.4637 31.0497L71.2628 32.131C71.5676 32.4696 71.5957 32.9601 71.3279 33.2718L72.6592 34.4721ZM70.1395 37.4055L72.6592 34.4721L71.3279 33.2718L68.8083 36.2053L70.1395 37.4055ZM70.0022 38.1991C69.908 37.914 69.9598 37.6148 70.1395 37.4055L68.8083 36.2052C68.269 36.8331 68.1137 37.7305 68.3963 38.586L70.0022 38.1991ZM71.6433 43.1667L70.0022 38.1991L68.3963 38.586L70.0374 43.5536L71.6433 43.1667ZM72.4462 43.8271C72.0837 43.789 71.7612 43.5238 71.6433 43.1667L70.0374 43.5536C70.3912 44.6247 71.3588 45.4205 72.4462 45.5348V43.8271ZM77.1787 44.3245L72.4462 43.8271V45.5348L77.1787 46.0322V44.3245ZM79.7262 47.1538C79.7262 45.7391 78.5856 44.4724 77.1787 44.3245V46.0322C77.6477 46.0815 78.0279 46.5037 78.0279 46.9753L79.7262 47.1538ZM79.7262 61.6691V47.1538L78.0279 46.9753V61.4906L79.7262 61.6691ZM78.0279 63.1982C78.9658 63.2968 79.7262 62.6122 79.7262 61.6691L78.0279 61.4906V63.1982ZM72.4115 62.6079L78.0279 63.1982V61.4906L72.4115 60.9002V62.6079ZM71.6164 63.0784C71.7407 62.7582 72.0575 62.5707 72.4115 62.6079V60.9002C71.3496 60.7886 70.3991 61.3511 70.0262 62.3116L71.6164 63.0784ZM69.8662 67.5875L71.6164 63.0784L70.0262 62.3117L68.276 66.8207L69.8662 67.5875ZM70.0608 68.5115C69.8253 68.25 69.7492 67.8887 69.8662 67.5875L68.276 66.8207C67.9252 67.7244 68.1535 68.8083 68.8599 69.5928L70.0608 68.5115ZM73.5333 72.3681L70.0608 68.5115L68.8599 69.5928L72.3325 73.4494L73.5333 72.3681ZM73.4799 75.2675C74.3132 74.577 74.3375 73.2612 73.5333 72.3681L72.3325 73.4494C72.4559 73.5866 72.4522 73.7886 72.3242 73.8946L73.4799 75.2675ZM63.6709 83.395L73.4799 75.2675L72.3242 73.8946L62.5153 82.0222L63.6709 83.395ZM60.1361 82.9577C61.105 84.0338 62.6668 84.227 63.6709 83.395L62.5153 82.0222C62.1806 82.2995 61.66 82.2351 61.337 81.8764L60.1361 82.9577ZM57.0114 79.4874L60.1361 82.9577L61.337 81.8764L58.2123 78.4061L57.0114 79.4874ZM56.0765 79.2081C56.3956 79.1041 56.7659 79.2147 57.0114 79.4874L58.2123 78.4061C57.4758 77.588 56.3649 77.2562 55.4075 77.5681L56.0765 79.2081ZM52.2185 80.4651L56.0765 79.208L55.4075 77.5681L51.5495 78.8252L52.2185 80.4651ZM51.7039 81.1958C51.7039 80.8542 51.9063 80.5668 52.2185 80.4651L51.5495 78.8252C50.6129 79.1304 50.0055 79.9926 50.0055 81.0173L51.7039 81.1958ZM51.7039 86.0466V81.1958L50.0055 81.0173V85.8681L51.7039 86.0466ZM49.1564 88.3404C50.5633 88.4883 51.7039 87.4613 51.7039 86.0466L50.0055 85.8681C50.0055 86.3397 49.6254 86.682 49.1564 86.6327V88.3404ZM34.7206 86.8231L49.1564 88.3404V86.6327L34.7206 85.1155V86.8231ZM32.1732 83.9939C32.1732 85.4086 33.3137 86.6753 34.7206 86.8231V85.1155C34.2517 85.0662 33.8715 84.6439 33.8715 84.1724L32.1732 83.9939ZM32.1732 79.4441V83.9939L33.8715 84.1724V79.6226L32.1732 79.4441ZM31.697 78.627C31.9884 78.8009 32.1732 79.1179 32.1732 79.4441L33.8715 79.6226C33.8715 78.6442 33.3172 77.693 32.4431 77.1713L31.697 78.627ZM27.7946 76.298L31.697 78.627L32.4431 77.1713L28.5407 74.8423L27.7946 76.298ZM26.8211 76.359C27.0776 76.128 27.4687 76.1035 27.7946 76.298L28.5407 74.8423C27.5631 74.2589 26.3897 74.3324 25.6202 75.0252L26.8211 76.359ZM23.4328 79.4098L26.8211 76.359L25.6202 75.0252L22.2319 78.0761L23.4328 79.4098ZM20.5336 79.1051C21.3342 79.9942 22.6322 80.1306 23.4328 79.4098L22.2319 78.0761C22.0946 78.1997 21.8719 78.1763 21.7345 78.0238L20.5336 79.1051ZM10.6954 68.1786L20.5336 79.1051L21.7345 78.0238L11.8963 67.0973L10.6954 68.1786ZM10.6954 64.5561C9.70056 65.4519 9.70056 67.0737 10.6954 68.1786L11.8963 67.0973C11.5647 66.729 11.5647 66.1884 11.8963 65.8898L10.6954 64.5561ZM13.7764 61.7819L10.6954 64.5561L11.8963 65.8898L14.9773 63.1157L13.7764 61.7819ZM13.9565 60.8608C14.0933 61.196 14.022 61.5609 13.7764 61.7819L14.9773 63.1157C15.7139 62.4524 15.9278 61.358 15.5175 60.3521L13.9565 60.8608ZM12.3031 56.8078L13.9565 60.8608L15.5175 60.3521L13.8641 56.2992L12.3031 56.8078ZM11.5226 56.2082C11.8623 56.2439 12.1693 56.4798 12.3031 56.8078L13.8641 56.2991C13.4627 55.3151 12.5416 54.6077 11.5226 54.5006V56.2082ZM6.69832 55.7012L11.5226 56.2082V54.5006L6.69832 53.9935V55.7012ZM4.15084 52.8719C4.15084 54.2866 5.29138 55.5533 6.69832 55.7012V53.9935C6.22934 53.9442 5.84916 53.522 5.84916 53.0504L4.15084 52.8719ZM4.15084 39.2105V52.8719L5.84916 53.0504V39.389L4.15084 39.2105ZM6.69832 36.9167C5.29139 36.7689 4.15084 37.7958 4.15084 39.2105L5.84916 39.389C5.84916 38.9174 6.22934 38.5751 6.69832 38.6244V36.9167ZM11.5226 37.4238L6.69832 36.9167V38.6244L11.5226 39.1315V37.4238ZM12.3031 36.9883C12.1693 37.2882 11.8623 37.4595 11.5226 37.4238V39.1315C12.5416 39.2386 13.4627 38.7247 13.8641 37.8251L12.3031 36.9883ZM13.993 33.2011L12.3031 36.9883L13.8641 37.8251L15.554 34.0378L13.993 33.2011ZM13.8572 32.2948C14.0678 32.5639 14.1205 32.9154 13.993 33.2011L15.554 34.0378C15.9364 33.1808 15.7785 32.1265 15.1467 31.319L13.8572 32.2948ZM10.2318 27.6607L13.8572 32.2948L15.1467 31.319L11.5212 26.6849L10.2318 27.6607ZM10.3437 24.7424C9.55076 25.4563 9.502 26.7279 10.2318 27.6607L11.5212 26.6849C11.369 26.4903 11.3792 26.225 11.5446 26.0761L10.3437 24.7424ZM62.7429 53.0533C62.7429 64.3708 53.6185 72.5864 42.363 71.4034V73.1111C54.5565 74.3927 64.4412 65.4924 64.4412 53.2318L62.7429 53.0533ZM42.363 30.4191C53.6185 31.6021 62.7429 41.7358 62.7429 53.0533L64.4412 53.2318C64.4412 40.9712 54.5565 29.993 42.363 28.7115V30.4191ZM21.9832 48.7693C21.9832 37.4518 31.1075 29.2361 42.363 30.4191V28.7115C30.1696 27.4299 20.2848 36.3301 20.2848 48.5908L21.9832 48.7693ZM42.363 71.4034C31.1075 70.2204 21.9832 60.0867 21.9832 48.7693L20.2848 48.5908C20.2848 60.8514 30.1696 71.8295 42.363 73.1111V71.4034Z" fill="url(#paint2_linear_18_152)"/>
<circle cx="4.09715" cy="4.09715" r="3.41429" transform="matrix(0.987688 -0.156434 0 1 104.697 37.4115)" fill="#00FF29" stroke="#151030" stroke-width="1.36572"/>
<circle cx="4.09715" cy="4.09715" r="3.41429" transform="matrix(0.985556 -0.16935 0 1 104.697 71.5544)" fill="#D9D9D9" stroke="#151030" stroke-width="1.36572"/>
<circle cx="4.09715" cy="4.09715" r="3.41429" transform="matrix(0.987688 -0.156434 0 1 104.697 102.966)" fill="#FF8A00" stroke="#151030" stroke-width="1.36572"/>
<defs>
<linearGradient id="paint0_linear_18_152" x1="76.7001" y1="18.4156" x2="76.7001" y2="112.691" gradientUnits="userSpaceOnUse">
<stop stop-color="#C575FB"/>
<stop offset="1" stop-color="#61D0FF"/>
</linearGradient>
<linearGradient id="paint1_linear_18_152" x1="41.9385" y1="13.2978" x2="34.305" y2="85.9256" gradientUnits="userSpaceOnUse">
<stop stop-color="#61D0FF"/>
<stop offset="1" stop-color="#C575FB"/>
</linearGradient>
<linearGradient id="paint2_linear_18_152" x1="41.9385" y1="13.2978" x2="34.305" y2="85.9256" gradientUnits="userSpaceOnUse">
<stop stop-color="#C575FB"/>
<stop offset="1" stop-color="#61D0FF"/>
</linearGradient>
</defs>
</svg>
