<svg width="128" height="128" viewBox="0 0 128 128" fill="none" xmlns="http://www.w3.org/2000/svg">
<path fill-rule="evenodd" clip-rule="evenodd" d="M103.469 22.9755C102.553 22.059 101.112 21.6139 100.196 22.5304L64.2312 58.4951L28.8573 23.1213C28.6779 22.9419 28.4857 22.7831 28.2837 22.6449C26.8763 21.6824 25.1132 22.6228 23.9076 23.8284C22.702 25.034 21.7616 26.7971 22.7241 28.2045C22.8623 28.4065 23.0211 28.5987 23.2005 28.7781L58.5502 64.1279C58.5629 62.6357 59.1598 61.1475 60.3407 60.0386C62.5252 57.9871 65.9281 57.9871 68.1126 60.0386C69.2959 61.1498 69.8927 62.6417 69.9031 64.1369L105.853 28.1872C106.769 27.2707 106.324 25.8302 105.408 24.9137L103.469 22.9755ZM69.9032 64.1672C69.9057 65.6788 69.3088 67.1913 68.1126 68.3147C67.033 69.3285 65.6559 69.8412 64.2754 69.853L99.568 105.146C99.7474 105.325 99.9396 105.484 100.142 105.622C101.549 106.585 103.312 105.644 104.518 104.439C105.723 103.233 106.664 101.47 105.701 100.062C105.563 99.8604 105.404 99.6682 105.225 99.4888L69.9032 64.1672ZM64.1869 69.8531C62.8034 69.8435 61.4226 69.3307 60.3407 68.3147C59.1468 67.1936 58.5499 65.6849 58.55 64.1763L22.4142 100.312C21.4977 101.229 21.9428 102.669 22.8593 103.586L24.7975 105.524C25.714 106.44 27.1545 106.886 28.0711 105.969L64.1869 69.8531Z" fill="url(#paint0_linear_37_31)"/>
<defs>
<linearGradient id="paint0_linear_37_31" x1="64" y1="106" x2="64" y2="22" gradientUnits="userSpaceOnUse">
<stop stop-color="#61D0FF"/>
<stop offset="1" stop-color="#C575FB"/>
</linearGradient>
</defs>
</svg>
