<svg width="128" height="128" viewBox="0 0 128 128" fill="none" xmlns="http://www.w3.org/2000/svg">
<path fill-rule="evenodd" clip-rule="evenodd" d="M9 108C7.70384 108 7 106.667 7 105.371V102.629C7 101.333 7.70384 100 9 100V100H119V100C120.296 100 121 101.333 121 102.629V105.371C121 106.667 120.296 108 119 108V108H9V108Z" fill="url(#paint0_linear_37_2)"/>
<path fill-rule="evenodd" clip-rule="evenodd" d="M9.25748 26.9312C7.58179 26.6167 7 24.705 7 23V23C7 21.295 7.58179 19.3833 9.25748 19.0688C9.49808 19.0236 9.74628 19 10 19H118C118.254 19 118.502 19.0236 118.743 19.0688C120.418 19.3833 121 21.295 121 23V23C121 24.705 120.418 26.6167 118.743 26.9312C118.502 26.9764 118.254 27 118 27H10C9.74628 27 9.49808 26.9764 9.25748 26.9312Z" fill="url(#paint1_linear_37_2)"/>
<path fill-rule="evenodd" clip-rule="evenodd" d="M12 79C8.14591 79 7 74.2617 7 70.4076V55.5924C7 51.7383 8.14591 47 12 47V47H116V47C119.854 47 121 51.7383 121 55.5924V70.4076C121 74.2617 119.854 79 116 79V79H12V79Z" fill="url(#paint2_linear_37_2)"/>
<defs>
<linearGradient id="paint0_linear_37_2" x1="64" y1="29" x2="64" y2="109" gradientUnits="userSpaceOnUse">
<stop stop-color="#C575FB"/>
<stop offset="1" stop-color="#61D0FF"/>
</linearGradient>
<linearGradient id="paint1_linear_37_2" x1="64" y1="18" x2="64" y2="98" gradientUnits="userSpaceOnUse">
<stop stop-color="#C575FB"/>
<stop offset="1" stop-color="#61D0FF"/>
</linearGradient>
<linearGradient id="paint2_linear_37_2" x1="64" y1="22" x2="64" y2="102" gradientUnits="userSpaceOnUse">
<stop stop-color="#C575FB"/>
<stop offset="1" stop-color="#61D0FF"/>
</linearGradient>
</defs>
</svg>
