<svg width="128" height="128" viewBox="0 0 128 128" fill="none" xmlns="http://www.w3.org/2000/svg">
<path d="M9.00002 38C9.00002 35.7908 10.803 32.2309 13 32L113 21C116.5 20.5 122 24 122 27.5V96.3973C122 98.5001 120.197 101.068 118 101.299L14.5 112.065C12.303 112.296 9.00002 108.209 9.00002 106V38Z" fill="#060917"/>
<path d="M11 40C11 37.7909 12.7811 35.8128 14.9781 35.5819L117.414 24.8154C119.611 24.5845 121.392 26.1882 121.392 28.3973V96.3973C121.392 98.6065 119.611 100.585 117.414 100.815L14.9781 111.582C12.7811 111.813 7 111.709 7 109.5L11 40Z" fill="url(#paint0_linear_18_151)"/>
<path d="M57 104.5C57 104.224 57.2223 103.974 57.4966 103.941L77.3579 101.59C77.6321 101.558 77.8545 101.756 77.8545 102.032C77.8545 102.308 77.6321 102.558 77.3579 102.59L57.4966 104.941C57.2223 104.974 57 104.776 57 104.5Z" fill="#D9D9D9"/>
<path d="M7 13C7 9.51162 13.1 8.44204 16.0836 7.9045C17.2274 7.69843 18.4336 7.59511 19.5884 7.72667L57.3189 12.0251C59.5127 12.2848 61.8189 14.9923 61.8189 17.2014V114C61.8189 115.918 58.5 121 55.5 120.5L11 115C8.80617 114.74 7 111.709 7 109.5V13Z" fill="#060917"/>
<path d="M8.00002 14C8.00002 11.7909 9.77846 10.2105 11.9723 10.4701L54.0277 15.4477C56.2216 15.7074 58 17.7087 58 19.9179V115.918C58 118.127 56.2216 119.707 54.0277 119.448L11.9723 114.47C9.77846 114.21 8.00002 112.209 8.00002 110V14Z" fill="url(#paint1_linear_18_151)"/>
<path d="M33.9792 15.8526C33.9792 16.681 33.3123 17.2737 32.4896 17.1763C31.6669 17.0789 31 16.3284 31 15.5C31 14.6716 31.6669 14.0789 32.4896 14.1763C33.3123 14.2737 33.9792 15.0242 33.9792 15.8526Z" fill="#060917"/>
<path d="M65.9792 33.1474C65.9792 33.9758 65.3123 34.7263 64.4896 34.8237C63.6669 34.9211 63 34.3284 63 33.5C63 32.6716 63.6669 31.9211 64.4896 31.8237C65.3123 31.7263 65.9792 32.319 65.9792 33.1474Z" fill="#060917"/>
<path d="M20 112.5C20 112.224 20.222 112.029 20.4957 112.065L40.3246 114.676C40.5984 114.712 40.8204 114.965 40.8204 115.241C40.8204 115.517 40.5984 115.712 40.3246 115.676L20.4957 113.065C20.222 113.029 20 112.776 20 112.5Z" fill="#D9D9D9"/>
<defs>
<linearGradient id="paint0_linear_18_151" x1="64.5" y1="7.66809" x2="64.5" y2="120.534" gradientUnits="userSpaceOnUse">
<stop stop-color="#C575FB"/>
<stop offset="1" stop-color="#61D0FF"/>
</linearGradient>
<linearGradient id="paint1_linear_18_151" x1="64.5" y1="7.66809" x2="64.5" y2="120.534" gradientUnits="userSpaceOnUse">
<stop stop-color="#C575FB"/>
<stop offset="1" stop-color="#61D0FF"/>
</linearGradient>
</defs>
</svg>
