<svg width="128" height="128" viewBox="0 0 128 128" fill="none" xmlns="http://www.w3.org/2000/svg">
<path d="M27.2941 72.834V13.959C27.2941 13.9012 27.2895 13.8451 27.2813 13.7878C26.8611 10.8228 28.8091 5.05666 39.9683 5.05666H107.608C108.626 4.97546 109.58 4.98699 110.381 5.05666H107.608C103.255 5.40356 97.7066 7.44301 97.7066 13.8722V72.8455C97.7066 73.4498 97.2168 73.9281 96.6125 73.9281H28.3882C27.7839 73.9281 27.2941 73.4383 27.2941 72.834Z" fill="url(#paint0_linear_18_153)"/>
<path d="M39.9683 5.05666C28.8091 5.05666 26.8611 10.8228 27.2813 13.7878C27.2895 13.8451 27.2941 13.9012 27.2941 13.959V72.834C27.2941 73.4383 27.7839 73.9281 28.3882 73.9281H96.6125C97.2168 73.9281 97.7066 73.4498 97.7066 72.8455C97.7066 55.7331 97.7066 21.6388 97.7066 13.8722C97.7066 5.93821 106.156 4.68934 110.381 5.05666H39.9683Z" stroke="#151030" stroke-width="2.18819"/>
<path d="M6.97018 67.463C6.91807 66.5156 6.97077 64 9 64H15.5127C16.236 64 17.6825 64.7636 17.6825 67.8182V69.4545H113.781C114.084 69.4545 114.386 69.42 114.689 69.4121C115.831 69.3823 117.491 69.892 117.491 72.1818V82.423C117.491 82.8679 117.589 83.3183 117.506 83.7555C117.372 84.4673 116.716 85.2727 114.779 85.2727H107.727L120.549 100.745C122.78 103.436 124 106.822 124 110.317V118.53C124 121.551 121.551 124 118.53 124H11.7618C8.74051 124 6.29129 121.551 6.29129 118.53V110.248C6.29129 106.85 7.44497 103.553 9.56344 100.897L22.022 85.2727H17.6825C17.6825 86.7273 17.0315 89.6364 14.4278 89.6364H10.2611C9.75635 89.6364 9.24158 89.5762 8.82612 89.2895C8.08567 88.7785 7 87.588 7 85V77V68.1748C7 67.9373 6.98323 67.7002 6.97018 67.463Z" fill="url(#paint1_linear_18_153)"/>
<path d="M17.6825 85.2727C17.6825 86.7273 17.0315 89.6364 14.4278 89.6364C12.2655 89.6364 11.4183 89.6364 10.2611 89.6364C9.75635 89.6364 9.24158 89.5762 8.82612 89.2895C8.08567 88.7785 7 87.588 7 85V77V68.1748C7 67.9373 6.98323 67.7002 6.97018 67.463C6.91807 66.5156 6.97077 64 9 64C12.0376 64 13.7046 64 15.5127 64C16.236 64 17.6825 64.7636 17.6825 67.8182C17.6825 68.243 17.6825 68.7993 17.6825 69.4545M17.6825 85.2727C17.6825 81.3594 17.6825 73.511 17.6825 69.4545M17.6825 85.2727C19.0689 85.2727 20.5181 85.2727 22.022 85.2727M17.6825 69.4545H113.781C114.084 69.4545 114.386 69.42 114.689 69.4121C115.831 69.3823 117.491 69.892 117.491 72.1818C117.491 74.5909 117.491 79.6477 117.491 82.423C117.491 82.8679 117.589 83.3183 117.506 83.7555C117.372 84.4673 116.716 85.2727 114.779 85.2727C114.298 85.2727 111.754 85.2727 107.727 85.2727M22.022 85.2727L9.56344 100.897C7.44497 103.553 6.29129 106.85 6.29129 110.248V118.53C6.29129 121.551 8.74051 124 11.7618 124H118.53C121.551 124 124 121.551 124 118.53V110.317C124 106.822 122.78 103.436 120.549 100.745L107.727 85.2727M22.022 85.2727C48.1862 85.2727 90.8997 85.2727 107.727 85.2727" stroke="#151030" stroke-width="2.18819"/>
<path d="M40.9057 97.366C40.9057 99.934 38.8239 102.016 36.2558 102.016C33.6877 102.016 31.6059 99.934 31.6059 97.366C31.6059 94.7979 33.6877 92.716 36.2558 92.716C38.8239 92.716 40.9057 94.7979 40.9057 97.366Z" fill="url(#paint2_linear_18_153)" stroke="#151030" stroke-width="2.18819"/>
<path d="M26.6824 111.589C26.6824 114.157 24.6006 116.239 22.0325 116.239C19.4644 116.239 17.3826 114.157 17.3826 111.589C17.3826 109.021 19.4644 106.939 22.0325 106.939C24.6006 106.939 26.6824 109.021 26.6824 111.589Z" fill="url(#paint3_linear_18_153)" stroke="#151030" stroke-width="2.18819"/>
<path d="M40.9057 111.589C40.9057 114.157 38.8239 116.239 36.2558 116.239C33.6877 116.239 31.6059 114.157 31.6059 111.589C31.6059 109.021 33.6877 106.939 36.2558 106.939C38.8239 106.939 40.9057 109.021 40.9057 111.589Z" fill="url(#paint4_linear_18_153)" stroke="#151030" stroke-width="2.18819"/>
<path d="M55.129 111.589C55.129 114.157 53.0471 116.239 50.4791 116.239C47.911 116.239 45.8291 114.157 45.8291 111.589C45.8291 109.021 47.911 106.939 50.4791 106.939C53.0471 106.939 55.129 109.021 55.129 111.589Z" fill="url(#paint5_linear_18_153)" stroke="#151030" stroke-width="2.18819"/>
<path d="M69.3522 111.589C69.3522 114.157 67.2704 116.239 64.7023 116.239C62.1342 116.239 60.0524 114.157 60.0524 111.589C60.0524 109.021 62.1342 106.939 64.7023 106.939C67.2704 106.939 69.3522 109.021 69.3522 111.589Z" fill="url(#paint6_linear_18_153)" stroke="#151030" stroke-width="2.18819"/>
<path d="M83.5755 111.589C83.5755 114.157 81.4936 116.239 78.9256 116.239C76.3575 116.239 74.2756 114.157 74.2756 111.589C74.2756 109.021 76.3575 106.939 78.9256 106.939C81.4936 106.939 83.5755 109.021 83.5755 111.589Z" fill="url(#paint7_linear_18_153)" stroke="#151030" stroke-width="2.18819"/>
<path d="M97.7988 111.589C97.7988 114.157 95.7169 116.239 93.1489 116.239C90.5808 116.239 88.4989 114.157 88.4989 111.589C88.4989 109.021 90.5808 106.939 93.1489 106.939C95.7169 106.939 97.7988 109.021 97.7988 111.589Z" fill="url(#paint8_linear_18_153)" stroke="#151030" stroke-width="2.18819"/>
<path d="M112.022 111.589C112.022 114.157 109.94 116.239 107.372 116.239C104.804 116.239 102.722 114.157 102.722 111.589C102.722 109.021 104.804 106.939 107.372 106.939C109.94 106.939 112.022 109.021 112.022 111.589Z" fill="url(#paint9_linear_18_153)" stroke="#151030" stroke-width="2.18819"/>
<path d="M55.129 97.366C55.129 99.934 53.0471 102.016 50.4791 102.016C47.911 102.016 45.8291 99.934 45.8291 97.366C45.8291 94.7979 47.911 92.716 50.4791 92.716C53.0471 92.716 55.129 94.7979 55.129 97.366Z" fill="url(#paint10_linear_18_153)" stroke="#151030" stroke-width="2.18819"/>
<path d="M69.3522 97.366C69.3522 99.934 67.2704 102.016 64.7023 102.016C62.1342 102.016 60.0524 99.934 60.0524 97.366C60.0524 94.7979 62.1342 92.716 64.7023 92.716C67.2704 92.716 69.3522 94.7979 69.3522 97.366Z" fill="url(#paint11_linear_18_153)" stroke="#151030" stroke-width="2.18819"/>
<path d="M83.5755 97.366C83.5755 99.934 81.4936 102.016 78.9256 102.016C76.3575 102.016 74.2756 99.934 74.2756 97.366C74.2756 94.7979 76.3575 92.716 78.9256 92.716C81.4936 92.716 83.5755 94.7979 83.5755 97.366Z" fill="url(#paint12_linear_18_153)" stroke="#151030" stroke-width="2.18819"/>
<path d="M97.7988 97.366C97.7988 99.934 95.7169 102.016 93.1489 102.016C90.5808 102.016 88.4989 99.934 88.4989 97.366C88.4989 94.7979 90.5808 92.716 93.1489 92.716C95.7169 92.716 97.7988 94.7979 97.7988 97.366Z" fill="url(#paint13_linear_18_153)" stroke="#151030" stroke-width="2.18819"/>
<path d="M107 5.0003H103.5C99.5612 4.96242 97.7988 7.49991 97.7988 11.5647V18.1291C97.7988 18.7334 98.2886 19.2232 98.8929 19.2232H118.04C118.644 19.2232 118.82 18.8577 118.333 18.5002C116.671 17.2806 113 14.7244 113 11C113 6.18605 109.918 5.18264 107 5.0003Z" fill="url(#paint14_linear_18_153)" stroke="#151030" stroke-width="2.18819"/>
<rect x="38.5" y="19.5" width="17" height="2" rx="1" fill="#151030" stroke="#151030"/>
<path d="M65.5 19.5H59.5C58.9477 19.5 58.5 19.9477 58.5 20.5C58.5 21.0523 58.9477 21.5 59.5 21.5H65.5C66.0523 21.5 66.5 21.0523 66.5 20.5C66.5 19.9477 66.0523 19.5 65.5 19.5Z" fill="#151030" stroke="#151030"/>
<path d="M84.5 19.5H70.3119C69.7596 19.5 69.3119 19.9477 69.3119 20.5C69.3119 21.0523 69.7596 21.5 70.3119 21.5H84.5C85.0523 21.5 85.5 21.0523 85.5 20.5C85.5 19.9477 85.0523 19.5 84.5 19.5Z" fill="#151030" stroke="#151030"/>
<rect x="38.5" y="57.5" width="47" height="2" rx="1" fill="#151030" stroke="#151030"/>
<rect x="38.5" y="34.5" width="47" height="2" rx="1" fill="#151030" stroke="#151030"/>
<rect x="38.5" y="49.5" width="30" height="2" rx="1" fill="#151030" stroke="#151030"/>
<rect x="70.5" y="49.5" width="15" height="2" rx="1" fill="#151030" stroke="#151030"/>
<path d="M60.5 27.5H39.5C38.9477 27.5 38.5 27.9477 38.5 28.5C38.5 29.0523 38.9477 29.5 39.5 29.5H60.5C61.0523 29.5 61.5 29.0523 61.5 28.5C61.5 27.9477 61.0523 27.5 60.5 27.5Z" fill="#151030" stroke="#151030"/>
<rect x="64.5" y="27.5" width="21" height="2" rx="1" fill="#151030" stroke="#151030"/>
<rect x="64.5" y="27.5" width="21" height="2" rx="1" fill="#151030" stroke="#151030"/>
<rect x="38.5" y="42.5" width="21" height="2" rx="1" fill="#151030" stroke="#151030"/>
<rect x="61.5" y="42.5" width="9" height="2" rx="1" fill="#151030" stroke="#151030"/>
<rect x="72.5" y="42.5" width="13" height="2" rx="1" fill="#151030" stroke="#151030"/>
<defs>
<linearGradient id="paint0_linear_18_153" x1="68.8052" y1="5" x2="68.8052" y2="73.9281" gradientUnits="userSpaceOnUse">
<stop stop-color="#C575FB"/>
<stop offset="1" stop-color="#61D0FF"/>
</linearGradient>
<linearGradient id="paint1_linear_18_153" x1="63.5" y1="64" x2="63.5" y2="124" gradientUnits="userSpaceOnUse">
<stop stop-color="#D9D9D9"/>
<stop offset="0.0001" stop-color="#C575FB"/>
<stop offset="1" stop-color="#61D0FF"/>
</linearGradient>
<linearGradient id="paint2_linear_18_153" x1="36.2558" y1="91.6219" x2="36.2558" y2="103.11" gradientUnits="userSpaceOnUse">
<stop stop-color="#61D0FF"/>
<stop offset="1" stop-color="#C575FB"/>
</linearGradient>
<linearGradient id="paint3_linear_18_153" x1="22.0325" y1="105.845" x2="22.0325" y2="117.333" gradientUnits="userSpaceOnUse">
<stop stop-color="#61D0FF"/>
<stop offset="1" stop-color="#C575FB"/>
</linearGradient>
<linearGradient id="paint4_linear_18_153" x1="36.2558" y1="105.845" x2="36.2558" y2="117.333" gradientUnits="userSpaceOnUse">
<stop stop-color="#61D0FF"/>
<stop offset="1" stop-color="#C575FB"/>
</linearGradient>
<linearGradient id="paint5_linear_18_153" x1="50.4791" y1="105.845" x2="50.4791" y2="117.333" gradientUnits="userSpaceOnUse">
<stop stop-color="#61D0FF"/>
<stop offset="1" stop-color="#C575FB"/>
</linearGradient>
<linearGradient id="paint6_linear_18_153" x1="64.7023" y1="105.845" x2="64.7023" y2="117.333" gradientUnits="userSpaceOnUse">
<stop stop-color="#61D0FF"/>
<stop offset="1" stop-color="#C575FB"/>
</linearGradient>
<linearGradient id="paint7_linear_18_153" x1="78.9256" y1="105.845" x2="78.9256" y2="117.333" gradientUnits="userSpaceOnUse">
<stop stop-color="#61D0FF"/>
<stop offset="1" stop-color="#C575FB"/>
</linearGradient>
<linearGradient id="paint8_linear_18_153" x1="93.1489" y1="105.845" x2="93.1489" y2="117.333" gradientUnits="userSpaceOnUse">
<stop stop-color="#61D0FF"/>
<stop offset="1" stop-color="#C575FB"/>
</linearGradient>
<linearGradient id="paint9_linear_18_153" x1="107.372" y1="105.845" x2="107.372" y2="117.333" gradientUnits="userSpaceOnUse">
<stop stop-color="#61D0FF"/>
<stop offset="1" stop-color="#C575FB"/>
</linearGradient>
<linearGradient id="paint10_linear_18_153" x1="50.4791" y1="91.6219" x2="50.4791" y2="103.11" gradientUnits="userSpaceOnUse">
<stop stop-color="#61D0FF"/>
<stop offset="1" stop-color="#C575FB"/>
</linearGradient>
<linearGradient id="paint11_linear_18_153" x1="64.7023" y1="91.6219" x2="64.7023" y2="103.11" gradientUnits="userSpaceOnUse">
<stop stop-color="#61D0FF"/>
<stop offset="1" stop-color="#C575FB"/>
</linearGradient>
<linearGradient id="paint12_linear_18_153" x1="78.9256" y1="91.6219" x2="78.9256" y2="103.11" gradientUnits="userSpaceOnUse">
<stop stop-color="#61D0FF"/>
<stop offset="1" stop-color="#C575FB"/>
</linearGradient>
<linearGradient id="paint13_linear_18_153" x1="93.1489" y1="91.6219" x2="93.1489" y2="103.11" gradientUnits="userSpaceOnUse">
<stop stop-color="#61D0FF"/>
<stop offset="1" stop-color="#C575FB"/>
</linearGradient>
<linearGradient id="paint14_linear_18_153" x1="108.466" y1="5" x2="108.466" y2="19.2233" gradientUnits="userSpaceOnUse">
<stop stop-color="#61D0FF"/>
<stop offset="1" stop-color="#C575FB"/>
</linearGradient>
</defs>
</svg>
