<svg width="128" height="128" viewBox="0 0 128 128" fill="none" xmlns="http://www.w3.org/2000/svg">
<mask id="path-1-inside-1_18_150" fill="white">
<path d="M87.5439 112.085C86.4137 112.567 85.3481 110.195 86.2675 109.379C89.1957 106.784 91.7336 103.695 93.8872 100.242C94.2847 99.6042 94.6691 98.9545 95.0406 98.2932C95.1642 98.073 95.3648 97.9063 95.6042 97.8265C100.48 96.2003 105.424 94.1559 110.404 91.6323C111.322 91.1676 112.254 92.1832 111.652 93.0166C105.695 101.262 97.3544 107.9 87.5439 112.085Z"/>
<path d="M92.1597 99.164L92.2279 99.0543C92.2716 98.9837 92.2045 98.8969 92.1249 98.9204C82.7077 101.703 73.5844 102.957 65.0068 103.132C64.4589 103.143 64.018 103.589 64.018 104.137V114.941C64.018 115.504 64.4832 115.957 65.045 115.927C77.2151 115.271 86.1819 108.749 92.1597 99.164Z"/>
<path d="M64.018 100.098C64.018 100.655 64.4724 101.105 65.0289 101.093C73.9891 100.903 83.5599 99.5127 93.4415 96.3864C93.6901 96.3078 93.8981 96.1347 94.0185 95.9034C98.7748 86.766 101.137 75.4429 101.187 64.0107C101.189 63.4613 100.742 63.018 100.193 63.018H65.018C64.4657 63.018 64.018 63.4657 64.018 64.018V100.098Z"/>
<path d="M114.465 87.1334L115.607 86.3718C115.748 86.2775 115.864 86.1487 115.941 85.9971C119.341 79.3086 121.304 71.8683 121.46 64.0185C121.471 63.4662 121.023 63.018 120.47 63.018H104.229C103.674 63.018 103.225 63.4701 103.223 64.0252C103.178 74.2212 101.335 84.403 97.5804 93.1369C97.2282 93.9562 98.0171 94.8246 98.8512 94.5093C104.001 92.5628 109.219 90.1286 114.465 87.1334Z"/>
<path d="M60.982 63.018C61.5343 63.018 61.982 63.4657 61.982 64.018V100.103C61.982 100.659 61.5288 101.109 60.9732 101.098C50.3188 100.9 40.6337 99.048 32.4559 96.5041C32.213 96.4286 32.0096 96.2632 31.887 96.0404C26.8425 86.8757 24.4073 75.4945 24.4057 64.0061C24.4056 63.4585 24.852 63.018 25.3996 63.018H60.982Z"/>
<path d="M21.3636 63.018C21.9205 63.018 22.3695 63.4728 22.3697 64.0297C22.3742 74.2531 24.2595 84.4626 28.2047 93.2162C28.5746 94.037 27.7837 94.9252 26.9417 94.6064C20.748 92.2614 15.6864 89.5932 12.0686 87.156L10.8484 86.3422C10.7069 86.2478 10.5916 86.1189 10.5146 85.9671C7.12386 79.2864 5.16651 71.8566 5.01015 64.0185C4.99913 63.4662 5.44793 63.018 6.00035 63.018H21.3636Z"/>
<path d="M30.8962 98.4102C30.7707 98.1986 30.5725 98.0388 30.3387 97.962C25.0284 96.2177 20.3764 94.1973 16.5327 92.168C15.5984 91.6747 14.6019 92.7324 15.2317 93.5807C21.081 101.461 29.1283 107.829 38.553 111.924C39.6901 112.418 40.7502 109.962 39.8075 109.157C36.5324 106.359 33.7371 103.008 31.4085 99.2548C31.2351 98.9755 31.0644 98.6939 30.8962 98.4102Z"/>
<path d="M61.982 104.141C61.982 103.592 61.5395 103.147 60.9908 103.137C51.961 102.971 43.6078 101.642 36.2439 99.7054C35.3473 99.4697 34.6332 100.454 35.1852 101.199C41.1407 109.235 49.6369 114.76 60.9131 115.834C61.49 115.889 61.982 115.43 61.982 114.85V104.141Z"/>
<path d="M5.09177 59.9426C5.05765 60.5094 5.5125 60.9819 6.08031 60.9819H21.4593C21.9976 60.9819 22.4386 60.5558 22.4642 60.0181C22.9137 50.5572 24.9624 41.1894 28.5127 33.0607C28.8566 32.2732 28.1356 31.4217 27.312 31.6668C22.5648 33.0797 17.7604 34.8164 12.9315 36.9224L12.2025 37.2869C12.0281 37.3741 11.8828 37.5102 11.7858 37.6793C7.94003 44.3844 5.57403 51.9303 5.09177 59.9426Z"/>
<path d="M17.016 33.039C16.089 33.3985 15.263 32.3617 15.8711 31.5751C21.7003 24.0341 29.572 17.9428 38.7361 13.9967C39.8459 13.5188 40.8582 15.6136 39.9655 16.4279C37.5906 18.5942 35.4469 21.1089 33.5426 23.8934C32.5983 25.274 31.7119 26.722 30.8841 28.2283C30.7508 28.4709 30.5246 28.6492 30.2571 28.7205C25.89 29.8846 21.4678 31.3126 17.016 33.039Z"/>
<path d="M35.6856 27.4003C34.8249 27.5898 34.1503 26.6677 34.6314 25.9292C34.826 25.6305 35.0233 25.335 35.2231 25.0428C41.4216 15.9796 50.1055 10.0948 61.002 9.97652C61.5462 9.97061 61.982 10.4167 61.982 10.9609V23.4032C61.982 23.9506 61.5421 24.3959 60.9949 24.4068C52.9704 24.5674 44.4634 25.4682 35.6856 27.4003Z"/>
<path d="M31.8515 30.7537C31.9808 30.4997 32.2143 30.3153 32.4906 30.2458C42.3946 27.7551 51.9905 26.6289 60.9695 26.4444C61.5267 26.433 61.982 26.8831 61.982 27.4404V59.9819C61.982 60.5342 61.5343 60.9819 60.982 60.9819H25.4989C24.9322 60.9819 24.4781 60.5114 24.5061 59.9453C25.0243 49.4926 27.5386 39.2298 31.8515 30.7537Z"/>
<path d="M65.0209 26.4241C64.4676 26.4183 64.018 26.8669 64.018 27.4202V59.9819C64.018 60.5342 64.4657 60.9819 65.018 60.9819H100.114C100.679 60.9819 101.132 60.5149 101.107 59.9509C100.646 49.32 98.1935 38.8859 93.8852 30.3265C93.7541 30.0661 93.5152 29.8787 93.2314 29.8119C85.1379 27.9069 75.5568 26.5345 65.0209 26.4241Z"/>
<path d="M64.018 23.3837C64.018 23.9349 64.4641 24.3817 65.0152 24.3874C74.2111 24.4823 82.6967 25.5243 90.1318 27.0467C90.9866 27.2217 91.6467 26.3078 91.1731 25.5751C91.0855 25.4395 90.9973 25.3047 90.9086 25.1705C84.8046 15.9385 76.1142 9.96362 64.9888 9.95776C64.4483 9.95748 64.018 10.4019 64.018 10.9424V23.3837Z"/>
<path d="M95.4856 28.2662C95.2111 28.1972 94.9778 28.0157 94.8422 27.7673C94.1405 26.4817 93.3953 25.2399 92.607 24.0476C90.6692 21.1168 88.4661 18.4809 86.0035 16.2304C85.1132 15.4169 86.1174 13.3151 87.2294 13.7819C96.4389 17.6484 104.37 23.6721 110.274 31.1578C110.904 31.9568 110.031 33.0281 109.088 32.6455C105.31 31.112 100.726 29.5838 95.4856 28.2662Z"/>
<path d="M112.546 36.411L112.545 36.4095L112.545 36.4081C108.965 34.6566 104.148 32.7837 98.3498 31.1382C97.531 30.9058 96.8232 31.7499 97.1613 32.5309C100.733 40.7817 102.745 50.35 103.148 60.0127C103.171 60.5526 103.613 60.9819 104.153 60.9819H120.39C120.958 60.9819 121.413 60.5094 121.379 59.9426C120.896 51.9219 118.526 44.3686 114.673 37.6582C114.576 37.4893 114.431 37.3534 114.256 37.2663L112.546 36.411Z"/>
</mask>
<path d="M87.5439 112.085C86.4137 112.567 85.3481 110.195 86.2675 109.379C89.1957 106.784 91.7336 103.695 93.8872 100.242C94.2847 99.6042 94.6691 98.9545 95.0406 98.2932C95.1642 98.073 95.3648 97.9063 95.6042 97.8265C100.48 96.2003 105.424 94.1559 110.404 91.6323C111.322 91.1676 112.254 92.1832 111.652 93.0166C105.695 101.262 97.3544 107.9 87.5439 112.085Z" fill="url(#paint0_linear_18_150)"/>
<path d="M92.1597 99.164L92.2279 99.0543C92.2716 98.9837 92.2045 98.8969 92.1249 98.9204C82.7077 101.703 73.5844 102.957 65.0068 103.132C64.4589 103.143 64.018 103.589 64.018 104.137V114.941C64.018 115.504 64.4832 115.957 65.045 115.927C77.2151 115.271 86.1819 108.749 92.1597 99.164Z" fill="url(#paint1_linear_18_150)"/>
<path d="M64.018 100.098C64.018 100.655 64.4724 101.105 65.0289 101.093C73.9891 100.903 83.5599 99.5127 93.4415 96.3864C93.6901 96.3078 93.8981 96.1347 94.0185 95.9034C98.7748 86.766 101.137 75.4429 101.187 64.0107C101.189 63.4613 100.742 63.018 100.193 63.018H65.018C64.4657 63.018 64.018 63.4657 64.018 64.018V100.098Z" fill="url(#paint2_linear_18_150)"/>
<path d="M114.465 87.1334L115.607 86.3718C115.748 86.2775 115.864 86.1487 115.941 85.9971C119.341 79.3086 121.304 71.8683 121.46 64.0185C121.471 63.4662 121.023 63.018 120.47 63.018H104.229C103.674 63.018 103.225 63.4701 103.223 64.0252C103.178 74.2212 101.335 84.403 97.5804 93.1369C97.2282 93.9562 98.0171 94.8246 98.8512 94.5093C104.001 92.5628 109.219 90.1286 114.465 87.1334Z" fill="url(#paint3_linear_18_150)"/>
<path d="M60.982 63.018C61.5343 63.018 61.982 63.4657 61.982 64.018V100.103C61.982 100.659 61.5288 101.109 60.9732 101.098C50.3188 100.9 40.6337 99.048 32.4559 96.5041C32.213 96.4286 32.0096 96.2632 31.887 96.0404C26.8425 86.8757 24.4073 75.4945 24.4057 64.0061C24.4056 63.4585 24.852 63.018 25.3996 63.018H60.982Z" fill="url(#paint4_linear_18_150)"/>
<path d="M21.3636 63.018C21.9205 63.018 22.3695 63.4728 22.3697 64.0297C22.3742 74.2531 24.2595 84.4626 28.2047 93.2162C28.5746 94.037 27.7837 94.9252 26.9417 94.6064C20.748 92.2614 15.6864 89.5932 12.0686 87.156L10.8484 86.3422C10.7069 86.2478 10.5916 86.1189 10.5146 85.9671C7.12386 79.2864 5.16651 71.8566 5.01015 64.0185C4.99913 63.4662 5.44793 63.018 6.00035 63.018H21.3636Z" fill="url(#paint5_linear_18_150)"/>
<path d="M30.8962 98.4102C30.7707 98.1986 30.5725 98.0388 30.3387 97.962C25.0284 96.2177 20.3764 94.1973 16.5327 92.168C15.5984 91.6747 14.6019 92.7324 15.2317 93.5807C21.081 101.461 29.1283 107.829 38.553 111.924C39.6901 112.418 40.7502 109.962 39.8075 109.157C36.5324 106.359 33.7371 103.008 31.4085 99.2548C31.2351 98.9755 31.0644 98.6939 30.8962 98.4102Z" fill="url(#paint6_linear_18_150)"/>
<path d="M61.982 104.141C61.982 103.592 61.5395 103.147 60.9908 103.137C51.961 102.971 43.6078 101.642 36.2439 99.7054C35.3473 99.4697 34.6332 100.454 35.1852 101.199C41.1407 109.235 49.6369 114.76 60.9131 115.834C61.49 115.889 61.982 115.43 61.982 114.85V104.141Z" fill="url(#paint7_linear_18_150)"/>
<path d="M5.09177 59.9426C5.05765 60.5094 5.5125 60.9819 6.08031 60.9819H21.4593C21.9976 60.9819 22.4386 60.5558 22.4642 60.0181C22.9137 50.5572 24.9624 41.1894 28.5127 33.0607C28.8566 32.2732 28.1356 31.4217 27.312 31.6668C22.5648 33.0797 17.7604 34.8164 12.9315 36.9224L12.2025 37.2869C12.0281 37.3741 11.8828 37.5102 11.7858 37.6793C7.94003 44.3844 5.57403 51.9303 5.09177 59.9426Z" fill="url(#paint8_linear_18_150)"/>
<path d="M17.016 33.039C16.089 33.3985 15.263 32.3617 15.8711 31.5751C21.7003 24.0341 29.572 17.9428 38.7361 13.9967C39.8459 13.5188 40.8582 15.6136 39.9655 16.4279C37.5906 18.5942 35.4469 21.1089 33.5426 23.8934C32.5983 25.274 31.7119 26.722 30.8841 28.2283C30.7508 28.4709 30.5246 28.6492 30.2571 28.7205C25.89 29.8846 21.4678 31.3126 17.016 33.039Z" fill="url(#paint9_linear_18_150)"/>
<path d="M35.6856 27.4003C34.8249 27.5898 34.1503 26.6677 34.6314 25.9292C34.826 25.6305 35.0233 25.335 35.2231 25.0428C41.4216 15.9796 50.1055 10.0948 61.002 9.97652C61.5462 9.97061 61.982 10.4167 61.982 10.9609V23.4032C61.982 23.9506 61.5421 24.3959 60.9949 24.4068C52.9704 24.5674 44.4634 25.4682 35.6856 27.4003Z" fill="url(#paint10_linear_18_150)"/>
<path d="M31.8515 30.7537C31.9808 30.4997 32.2143 30.3153 32.4906 30.2458C42.3946 27.7551 51.9905 26.6289 60.9695 26.4444C61.5267 26.433 61.982 26.8831 61.982 27.4404V59.9819C61.982 60.5342 61.5343 60.9819 60.982 60.9819H25.4989C24.9322 60.9819 24.4781 60.5114 24.5061 59.9453C25.0243 49.4926 27.5386 39.2298 31.8515 30.7537Z" fill="url(#paint11_linear_18_150)"/>
<path d="M65.0209 26.4241C64.4676 26.4183 64.018 26.8669 64.018 27.4202V59.9819C64.018 60.5342 64.4657 60.9819 65.018 60.9819H100.114C100.679 60.9819 101.132 60.5149 101.107 59.9509C100.646 49.32 98.1935 38.8859 93.8852 30.3265C93.7541 30.0661 93.5152 29.8787 93.2314 29.8119C85.1379 27.9069 75.5568 26.5345 65.0209 26.4241Z" fill="url(#paint12_linear_18_150)"/>
<path d="M64.018 23.3837C64.018 23.9349 64.4641 24.3817 65.0152 24.3874C74.2111 24.4823 82.6967 25.5243 90.1318 27.0467C90.9866 27.2217 91.6467 26.3078 91.1731 25.5751C91.0855 25.4395 90.9973 25.3047 90.9086 25.1705C84.8046 15.9385 76.1142 9.96362 64.9888 9.95776C64.4483 9.95748 64.018 10.4019 64.018 10.9424V23.3837Z" fill="url(#paint13_linear_18_150)"/>
<path d="M95.4856 28.2662C95.2111 28.1972 94.9778 28.0157 94.8422 27.7673C94.1405 26.4817 93.3953 25.2399 92.607 24.0476C90.6692 21.1168 88.4661 18.4809 86.0035 16.2304C85.1132 15.4169 86.1174 13.3151 87.2294 13.7819C96.4389 17.6484 104.37 23.6721 110.274 31.1578C110.904 31.9568 110.031 33.0281 109.088 32.6455C105.31 31.112 100.726 29.5838 95.4856 28.2662Z" fill="url(#paint14_linear_18_150)"/>
<path d="M112.546 36.411L112.545 36.4095L112.545 36.4081C108.965 34.6566 104.148 32.7837 98.3498 31.1382C97.531 30.9058 96.8232 31.7499 97.1613 32.5309C100.733 40.7817 102.745 50.35 103.148 60.0127C103.171 60.5526 103.613 60.9819 104.153 60.9819H120.39C120.958 60.9819 121.413 60.5094 121.379 59.9426C120.896 51.9219 118.526 44.3686 114.673 37.6582C114.576 37.4893 114.431 37.3534 114.256 37.2663L112.546 36.411Z" fill="url(#paint15_linear_18_150)"/>
<path d="M87.5439 112.085C86.4137 112.567 85.3481 110.195 86.2675 109.379C89.1957 106.784 91.7336 103.695 93.8872 100.242C94.2847 99.6042 94.6691 98.9545 95.0406 98.2932C95.1642 98.073 95.3648 97.9063 95.6042 97.8265C100.48 96.2003 105.424 94.1559 110.404 91.6323C111.322 91.1676 112.254 92.1832 111.652 93.0166C105.695 101.262 97.3544 107.9 87.5439 112.085Z" stroke="#060917" stroke-width="4" mask="url(#path-1-inside-1_18_150)"/>
<path d="M92.1597 99.164L92.2279 99.0543C92.2716 98.9837 92.2045 98.8969 92.1249 98.9204C82.7077 101.703 73.5844 102.957 65.0068 103.132C64.4589 103.143 64.018 103.589 64.018 104.137V114.941C64.018 115.504 64.4832 115.957 65.045 115.927C77.2151 115.271 86.1819 108.749 92.1597 99.164Z" stroke="#060917" stroke-width="4" mask="url(#path-1-inside-1_18_150)"/>
<path d="M64.018 100.098C64.018 100.655 64.4724 101.105 65.0289 101.093C73.9891 100.903 83.5599 99.5127 93.4415 96.3864C93.6901 96.3078 93.8981 96.1347 94.0185 95.9034C98.7748 86.766 101.137 75.4429 101.187 64.0107C101.189 63.4613 100.742 63.018 100.193 63.018H65.018C64.4657 63.018 64.018 63.4657 64.018 64.018V100.098Z" stroke="#060917" stroke-width="4" mask="url(#path-1-inside-1_18_150)"/>
<path d="M114.465 87.1334L115.607 86.3718C115.748 86.2775 115.864 86.1487 115.941 85.9971C119.341 79.3086 121.304 71.8683 121.46 64.0185C121.471 63.4662 121.023 63.018 120.47 63.018H104.229C103.674 63.018 103.225 63.4701 103.223 64.0252C103.178 74.2212 101.335 84.403 97.5804 93.1369C97.2282 93.9562 98.0171 94.8246 98.8512 94.5093C104.001 92.5628 109.219 90.1286 114.465 87.1334Z" stroke="#060917" stroke-width="4" mask="url(#path-1-inside-1_18_150)"/>
<path d="M60.982 63.018C61.5343 63.018 61.982 63.4657 61.982 64.018V100.103C61.982 100.659 61.5288 101.109 60.9732 101.098C50.3188 100.9 40.6337 99.048 32.4559 96.5041C32.213 96.4286 32.0096 96.2632 31.887 96.0404C26.8425 86.8757 24.4073 75.4945 24.4057 64.0061C24.4056 63.4585 24.852 63.018 25.3996 63.018H60.982Z" stroke="#060917" stroke-width="4" mask="url(#path-1-inside-1_18_150)"/>
<path d="M21.3636 63.018C21.9205 63.018 22.3695 63.4728 22.3697 64.0297C22.3742 74.2531 24.2595 84.4626 28.2047 93.2162C28.5746 94.037 27.7837 94.9252 26.9417 94.6064C20.748 92.2614 15.6864 89.5932 12.0686 87.156L10.8484 86.3422C10.7069 86.2478 10.5916 86.1189 10.5146 85.9671C7.12386 79.2864 5.16651 71.8566 5.01015 64.0185C4.99913 63.4662 5.44793 63.018 6.00035 63.018H21.3636Z" stroke="#060917" stroke-width="4" mask="url(#path-1-inside-1_18_150)"/>
<path d="M30.8962 98.4102C30.7707 98.1986 30.5725 98.0388 30.3387 97.962C25.0284 96.2177 20.3764 94.1973 16.5327 92.168C15.5984 91.6747 14.6019 92.7324 15.2317 93.5807C21.081 101.461 29.1283 107.829 38.553 111.924C39.6901 112.418 40.7502 109.962 39.8075 109.157C36.5324 106.359 33.7371 103.008 31.4085 99.2548C31.2351 98.9755 31.0644 98.6939 30.8962 98.4102Z" stroke="#060917" stroke-width="4" mask="url(#path-1-inside-1_18_150)"/>
<path d="M61.982 104.141C61.982 103.592 61.5395 103.147 60.9908 103.137C51.961 102.971 43.6078 101.642 36.2439 99.7054C35.3473 99.4697 34.6332 100.454 35.1852 101.199C41.1407 109.235 49.6369 114.76 60.9131 115.834C61.49 115.889 61.982 115.43 61.982 114.85V104.141Z" stroke="#060917" stroke-width="4" mask="url(#path-1-inside-1_18_150)"/>
<path d="M5.09177 59.9426C5.05765 60.5094 5.5125 60.9819 6.08031 60.9819H21.4593C21.9976 60.9819 22.4386 60.5558 22.4642 60.0181C22.9137 50.5572 24.9624 41.1894 28.5127 33.0607C28.8566 32.2732 28.1356 31.4217 27.312 31.6668C22.5648 33.0797 17.7604 34.8164 12.9315 36.9224L12.2025 37.2869C12.0281 37.3741 11.8828 37.5102 11.7858 37.6793C7.94003 44.3844 5.57403 51.9303 5.09177 59.9426Z" stroke="#060917" stroke-width="4" mask="url(#path-1-inside-1_18_150)"/>
<path d="M17.016 33.039C16.089 33.3985 15.263 32.3617 15.8711 31.5751C21.7003 24.0341 29.572 17.9428 38.7361 13.9967C39.8459 13.5188 40.8582 15.6136 39.9655 16.4279C37.5906 18.5942 35.4469 21.1089 33.5426 23.8934C32.5983 25.274 31.7119 26.722 30.8841 28.2283C30.7508 28.4709 30.5246 28.6492 30.2571 28.7205C25.89 29.8846 21.4678 31.3126 17.016 33.039Z" stroke="#060917" stroke-width="4" mask="url(#path-1-inside-1_18_150)"/>
<path d="M35.6856 27.4003C34.8249 27.5898 34.1503 26.6677 34.6314 25.9292C34.826 25.6305 35.0233 25.335 35.2231 25.0428C41.4216 15.9796 50.1055 10.0948 61.002 9.97652C61.5462 9.97061 61.982 10.4167 61.982 10.9609V23.4032C61.982 23.9506 61.5421 24.3959 60.9949 24.4068C52.9704 24.5674 44.4634 25.4682 35.6856 27.4003Z" stroke="#060917" stroke-width="4" mask="url(#path-1-inside-1_18_150)"/>
<path d="M31.8515 30.7537C31.9808 30.4997 32.2143 30.3153 32.4906 30.2458C42.3946 27.7551 51.9905 26.6289 60.9695 26.4444C61.5267 26.433 61.982 26.8831 61.982 27.4404V59.9819C61.982 60.5342 61.5343 60.9819 60.982 60.9819H25.4989C24.9322 60.9819 24.4781 60.5114 24.5061 59.9453C25.0243 49.4926 27.5386 39.2298 31.8515 30.7537Z" stroke="#060917" stroke-width="4" mask="url(#path-1-inside-1_18_150)"/>
<path d="M65.0209 26.4241C64.4676 26.4183 64.018 26.8669 64.018 27.4202V59.9819C64.018 60.5342 64.4657 60.9819 65.018 60.9819H100.114C100.679 60.9819 101.132 60.5149 101.107 59.9509C100.646 49.32 98.1935 38.8859 93.8852 30.3265C93.7541 30.0661 93.5152 29.8787 93.2314 29.8119C85.1379 27.9069 75.5568 26.5345 65.0209 26.4241Z" stroke="#060917" stroke-width="4" mask="url(#path-1-inside-1_18_150)"/>
<path d="M64.018 23.3837C64.018 23.9349 64.4641 24.3817 65.0152 24.3874C74.2111 24.4823 82.6967 25.5243 90.1318 27.0467C90.9866 27.2217 91.6467 26.3078 91.1731 25.5751C91.0855 25.4395 90.9973 25.3047 90.9086 25.1705C84.8046 15.9385 76.1142 9.96362 64.9888 9.95776C64.4483 9.95748 64.018 10.4019 64.018 10.9424V23.3837Z" stroke="#060917" stroke-width="4" mask="url(#path-1-inside-1_18_150)"/>
<path d="M95.4856 28.2662C95.2111 28.1972 94.9778 28.0157 94.8422 27.7673C94.1405 26.4817 93.3953 25.2399 92.607 24.0476C90.6692 21.1168 88.4661 18.4809 86.0035 16.2304C85.1132 15.4169 86.1174 13.3151 87.2294 13.7819C96.4389 17.6484 104.37 23.6721 110.274 31.1578C110.904 31.9568 110.031 33.0281 109.088 32.6455C105.31 31.112 100.726 29.5838 95.4856 28.2662Z" stroke="#060917" stroke-width="4" mask="url(#path-1-inside-1_18_150)"/>
<path d="M112.546 36.411L112.545 36.4095L112.545 36.4081C108.965 34.6566 104.148 32.7837 98.3498 31.1382C97.531 30.9058 96.8232 31.7499 97.1613 32.5309C100.733 40.7817 102.745 50.35 103.148 60.0127C103.171 60.5526 103.613 60.9819 104.153 60.9819H120.39C120.958 60.9819 121.413 60.5094 121.379 59.9426C120.896 51.9219 118.526 44.3686 114.673 37.6582C114.576 37.4893 114.431 37.3534 114.256 37.2663L112.546 36.411Z" stroke="#060917" stroke-width="4" mask="url(#path-1-inside-1_18_150)"/>
<defs>
<linearGradient id="paint0_linear_18_150" x1="63.2353" y1="9.95776" x2="63.2353" y2="115.928" gradientUnits="userSpaceOnUse">
<stop stop-color="#C575FB"/>
<stop offset="1" stop-color="#61D0FF"/>
</linearGradient>
<linearGradient id="paint1_linear_18_150" x1="63.2353" y1="9.95776" x2="63.2353" y2="115.928" gradientUnits="userSpaceOnUse">
<stop stop-color="#C575FB"/>
<stop offset="1" stop-color="#61D0FF"/>
</linearGradient>
<linearGradient id="paint2_linear_18_150" x1="63.2353" y1="9.95776" x2="63.2353" y2="115.928" gradientUnits="userSpaceOnUse">
<stop stop-color="#C575FB"/>
<stop offset="1" stop-color="#61D0FF"/>
</linearGradient>
<linearGradient id="paint3_linear_18_150" x1="63.2353" y1="9.95776" x2="63.2353" y2="115.928" gradientUnits="userSpaceOnUse">
<stop stop-color="#C575FB"/>
<stop offset="1" stop-color="#61D0FF"/>
</linearGradient>
<linearGradient id="paint4_linear_18_150" x1="63.2353" y1="9.95776" x2="63.2353" y2="115.928" gradientUnits="userSpaceOnUse">
<stop stop-color="#C575FB"/>
<stop offset="1" stop-color="#61D0FF"/>
</linearGradient>
<linearGradient id="paint5_linear_18_150" x1="63.2353" y1="9.95776" x2="63.2353" y2="115.928" gradientUnits="userSpaceOnUse">
<stop stop-color="#C575FB"/>
<stop offset="1" stop-color="#61D0FF"/>
</linearGradient>
<linearGradient id="paint6_linear_18_150" x1="63.2353" y1="9.95776" x2="63.2353" y2="115.928" gradientUnits="userSpaceOnUse">
<stop stop-color="#C575FB"/>
<stop offset="1" stop-color="#61D0FF"/>
</linearGradient>
<linearGradient id="paint7_linear_18_150" x1="63.2353" y1="9.95776" x2="63.2353" y2="115.928" gradientUnits="userSpaceOnUse">
<stop stop-color="#C575FB"/>
<stop offset="1" stop-color="#61D0FF"/>
</linearGradient>
<linearGradient id="paint8_linear_18_150" x1="63.2353" y1="9.95776" x2="63.2353" y2="115.928" gradientUnits="userSpaceOnUse">
<stop stop-color="#C575FB"/>
<stop offset="1" stop-color="#61D0FF"/>
</linearGradient>
<linearGradient id="paint9_linear_18_150" x1="63.2353" y1="9.95776" x2="63.2353" y2="115.928" gradientUnits="userSpaceOnUse">
<stop stop-color="#C575FB"/>
<stop offset="1" stop-color="#61D0FF"/>
</linearGradient>
<linearGradient id="paint10_linear_18_150" x1="63.2353" y1="9.95776" x2="63.2353" y2="115.928" gradientUnits="userSpaceOnUse">
<stop stop-color="#C575FB"/>
<stop offset="1" stop-color="#61D0FF"/>
</linearGradient>
<linearGradient id="paint11_linear_18_150" x1="63.2353" y1="9.95776" x2="63.2353" y2="115.928" gradientUnits="userSpaceOnUse">
<stop stop-color="#C575FB"/>
<stop offset="1" stop-color="#61D0FF"/>
</linearGradient>
<linearGradient id="paint12_linear_18_150" x1="63.2353" y1="9.95776" x2="63.2353" y2="115.928" gradientUnits="userSpaceOnUse">
<stop stop-color="#C575FB"/>
<stop offset="1" stop-color="#61D0FF"/>
</linearGradient>
<linearGradient id="paint13_linear_18_150" x1="63.2353" y1="9.95776" x2="63.2353" y2="115.928" gradientUnits="userSpaceOnUse">
<stop stop-color="#C575FB"/>
<stop offset="1" stop-color="#61D0FF"/>
</linearGradient>
<linearGradient id="paint14_linear_18_150" x1="63.2353" y1="9.95776" x2="63.2353" y2="115.928" gradientUnits="userSpaceOnUse">
<stop stop-color="#C575FB"/>
<stop offset="1" stop-color="#61D0FF"/>
</linearGradient>
<linearGradient id="paint15_linear_18_150" x1="63.2353" y1="9.95776" x2="63.2353" y2="115.928" gradientUnits="userSpaceOnUse">
<stop stop-color="#C575FB"/>
<stop offset="1" stop-color="#61D0FF"/>
</linearGradient>
</defs>
</svg>
